<?xml version="1.0" encoding="utf-8"?>
<!-- Generator: Adobe Illustrator 26.2.1, SVG Export Plug-In . SVG Version: 6.00 Build 0)  -->
<svg version="1.1" id="Layer_1" xmlns="http://www.w3.org/2000/svg" xmlns:xlink="http://www.w3.org/1999/xlink" x="0px" y="0px"
	 viewBox="0 0 115 70" style="enable-background:new 0 0 115 70;" xml:space="preserve">
<style type="text/css">
	.st0{clip-path:url(#SVGID_00000048487659307520606580000010569391856973019784_);}
	.st1{fill:#AFB1B3;}
	.st2{fill:#B0B2B4;}
</style>
<g>
	<defs>
		<rect id="SVGID_1_" x="15" y="9.13" width="85" height="51.74"/>
	</defs>
	<clipPath id="SVGID_00000038391585504220275370000017614972145675251345_">
		<use xlink:href="#SVGID_1_"  style="overflow:visible;"/>
	</clipPath>
	<g style="clip-path:url(#SVGID_00000038391585504220275370000017614972145675251345_);">
		<path class="st1" d="M64.54,59.71h-8.57c0-4.23,0.05-8.37,0-12.5c-0.04-2.61-0.14-5.23-0.39-7.83c-0.23-2.39-1.8-3.66-4.1-4.01
			c-3.14-0.46-5.8,0.46-6.78,2.72c-0.69,1.61-1.09,3.34-1.16,5.09c-0.16,4.7-0.06,9.41-0.07,14.12c0,0.75-0.07,1.5-0.12,2.38h-8.5
			V9.13h8.49v23.59c0.99-0.93,1.56-1.44,2.12-1.97c4.91-4.66,14.05-3.63,17.56,2.16c0.97,1.57,1.53,3.35,1.63,5.2
			c0.18,6.86,0.09,13.73,0.09,20.6C64.7,59.05,64.63,59.38,64.54,59.71z"/>
		<path class="st1" d="M83.76,60.86c-2.1,0.07-4.2-0.29-6.16-1.06c-1.96-0.77-3.74-1.92-5.25-3.4c-1.5-1.48-2.69-3.24-3.49-5.19
			c-0.8-1.95-1.2-4.04-1.17-6.15c0.06-9.68,7.89-15.94,16.57-15.83c8.2,0.1,16.01,6.91,15.71,16.12
			C99.71,54.36,93.07,60.91,83.76,60.86z M91.57,45.11c0-5.03-3.16-8.37-7.86-8.34c-4.48,0.05-7.46,3.45-7.44,8.48
			s3.03,8.13,7.72,8.13c4.61-0.04,7.57-3.29,7.57-8.3L91.57,45.11z"/>
		<path class="st2" d="M15,59.63v-30.6h8.52l0.22,4.05c2.31-2.85,4.62-5.14,8.46-5.07v9c-0.5,0.05-0.95,0.12-1.39,0.14
			c-4.1,0.23-6.39,2.11-6.73,6.13c-0.36,4.21-0.31,8.45-0.43,12.68c-0.03,1.15,0,2.32,0,3.67H15z"/>
	</g>
</g>
</svg>
