<?xml version="1.0" encoding="utf-8"?>
<!-- Generator: Adobe Illustrator 25.2.1, SVG Export Plug-In . SVG Version: 6.00 Build 0)  -->
<svg version="1.1" id="Capa_1" xmlns="http://www.w3.org/2000/svg" xmlns:xlink="http://www.w3.org/1999/xlink" x="0px" y="0px"
	 viewBox="0 0 447 133" style="enable-background:new 0 0 447 133;" xml:space="preserve">
<style type="text/css">
	.st0{clip-path:url(#SVGID_2_);fill:#F26D38;}
	.st1{clip-path:url(#SVGID_2_);}
	.st2{fill:#FFFFFF;}
	.st3{clip-path:url(#SVGID_2_);fill:#F7EB1C;}
	.st4{clip-path:url(#SVGID_2_);fill:#B2D235;}
	.st5{fill:#5CAA46;}
</style>
<g>
	<g>
		<g>
			<defs>
				
					<ellipse id="SVGID_1_" transform="matrix(0.2298 -0.9732 0.9732 0.2298 -14.4835 114.8898)" cx="65.3" cy="66.6" rx="60.9" ry="60.9"/>
			</defs>
			<clipPath id="SVGID_2_">
				<use xlink:href="#SVGID_1_"  style="overflow:visible;"/>
			</clipPath>
			
				<ellipse transform="matrix(0.2298 -0.9732 0.9732 0.2298 -14.4835 114.8898)" class="st0" cx="65.3" cy="66.6" rx="60.9" ry="60.9"/>
			<g class="st1">
				<path class="st2" d="M86,74.4c-2.4-9.4-10.9-16.3-21-16.3c-10.1,0-18.6,6.9-21.1,16.3H86z"/>
				<path class="st2" d="M92.6,79.5H37.3l1.6-6.4C42,61.3,52.7,53,65,53c12.3,0,22.9,8.3,26,20.1L92.6,79.5z M52,69.4h25.8
					c-3.1-3.8-7.8-6.1-12.9-6.1C59.8,63.2,55.1,65.6,52,69.4z"/>
			</g>
			<path class="st3" d="M86,74.4c-2.4-9.4-10.9-16.3-21-16.3c-10.1,0-18.6,6.9-21.1,16.3H86z"/>
			<path class="st4" d="M153.8,102.2c0,0-50.9,31.5-91.8,31.5c-40.9,0-89.6-37.5-89.6-37.5V74.4h181.3V102.2z"/>
			<g class="st1">
				<g>
					<polygon class="st5" points="-28.8,84.7 52.2,76.2 -20.2,94.1 -28.9,90.8 					"/>
					<polygon class="st5" points="-13.3,101.4 55.8,76.5 0.9,106.8 -1.2,106.8 					"/>
					<polygon class="st5" points="58.2,77.3 21.8,110.5 15.5,110.5 11.9,108 					"/>
					<polygon class="st5" points="60.6,77.7 30.8,129.8 18.6,125.6 					"/>
					<polygon class="st5" points="63.1,78.1 40.1,133.7 50.8,132.9 					"/>
					<polygon class="st5" points="65,79.3 65,78.1 65,78.2 65,78.1 64.9,79.3 62.4,115.5 59.8,136.6 65.3,131.6 68.7,133.5 					"/>
				</g>
			</g>
			<g class="st1">
				<g>
					<polygon class="st5" points="158.7,84.7 77.8,76.2 150.1,94.1 158.9,90.8 					"/>
					<polygon class="st5" points="143.3,101.4 74.2,76.5 129,106.8 131.2,106.8 					"/>
					<polygon class="st5" points="71.7,77.3 108.1,110.5 114.4,110.5 119.7,109.1 					"/>
					<polygon class="st5" points="69.4,77.7 96.4,125 104.3,117.5 					"/>
					<polygon class="st5" points="66.8,78.1 87.8,128.7 78.9,132.2 					"/>
				</g>
			</g>
			<g class="st1">
				<g>
					<path class="st2" d="M63,53.1L54.4-2.1H36.6l22.7,55.8C60.5,53.4,61.8,53.2,63,53.1z"/>
					<path class="st2" d="M47.8,59.2L-21.8-2.5l-5.3-1.2l1.5,18.5l71.2,46.4C46.3,60.6,47.1,59.9,47.8,59.2z"/>
					<path class="st2" d="M43.2,64.2l-68.7-30.8l-0.9,13.1l68.1,20C42.2,65.6,42.7,64.9,43.2,64.2z"/>
					<path class="st2" d="M40.4,69.1l-65.9-9l-0.9,11.1h66C39.8,70.5,40.1,69.8,40.4,69.1z"/>
					<path class="st2" d="M55,55L15.4-2.5H-1.9l53.5,59.1C52.7,56,53.8,55.4,55,55z"/>
				</g>
				<g>
					<path class="st2" d="M66.6,53.1l8.7-55.2H93L70.3,53.7C69.1,53.4,67.8,53.2,66.6,53.1z"/>
					<path class="st2" d="M81.8,59.2l69.6-61.7l5.3-1.2l-1.5,18.5L84,61.3C83.3,60.6,82.5,59.9,81.8,59.2z"/>
					<path class="st2" d="M86.4,64.2l68.7-30.8l0.9,13.1l-68.1,20C87.4,65.6,86.9,64.9,86.4,64.2z"/>
					<path class="st2" d="M89.2,69.1l65.9-9l0.9,11.1H90C89.8,70.5,89.5,69.8,89.2,69.1z"/>
					<path class="st2" d="M74.6,55l39.5-57.4h17.3L78,56.6C76.9,56,75.8,55.4,74.6,55z"/>
				</g>
			</g>
		</g>
		<path class="st2" d="M65.3,129.9C30.4,129.9,2,101.5,2,66.6S30.4,3.3,65.3,3.3s63.3,28.4,63.3,63.3S100.3,129.9,65.3,129.9z
			 M65.3,8.2C33.1,8.2,6.9,34.4,6.9,66.6S33.1,125,65.3,125c32.2,0,58.4-26.2,58.4-58.4S97.6,8.2,65.3,8.2z"/>
	</g>
	<g>
		<polygon points="140.7,34.5 157.6,34.5 157.6,79.1 173.5,79.1 173.5,34.5 190.5,34.5 190.5,21.6 140.7,21.6 		"/>
		<polygon points="233.3,43.6 211,43.6 211,21.6 195.7,21.6 195.7,79.1 211,79.1 211,56.2 233.3,56.2 233.3,79.1 248.6,79.1 
			248.6,21.6 233.3,21.6 		"/>
		<path d="M294.3,56.3c3.6-1.1,6.5-3.1,8.6-5.7c2.4-3,3.6-6.8,3.6-11.2c0-5.7-1.8-10.2-5.3-13.2c-3.5-3-8.8-4.6-15.8-4.6H258v57.6
			h15.5V57.9h4c2.5,0,4.3,1,5.5,2.9l9.9,18.3h17.3l-9.4-16.8C299.2,59.3,297,57.3,294.3,56.3z M273.3,33.6h9.8
			c3.2,0,5.4,0.5,6.8,1.5c1.3,1,1.9,2.5,1.9,4.7c0,2.2-0.6,3.7-1.9,4.6c-1.3,1-3.6,1.4-6.8,1.4h-9.8V33.6z"/>
		<rect x="314.8" y="21.6" width="15.7" height="57.6"/>
		<polygon points="414.6,66.5 414.6,55.7 430.5,55.7 430.5,43.1 414.6,43.1 414.6,34.1 440.1,34.1 440.1,21.5 407.2,21.5 
			399.5,38.1 399.5,79.1 441.8,79.1 441.8,66.5 		"/>
		<polygon points="367,59.1 351,21.8 350.9,21.6 334.5,21.6 360.6,78.9 360.7,79.1 373,79.1 399.3,21.6 383.3,21.6 		"/>
	</g>
	<g>
		<g>
			<path d="M182.4,112.8h5c0.2,1.3,0.7,2.3,1.6,3c0.9,0.6,2.2,1,3.9,1c1.5,0,2.6-0.3,3.3-0.8c0.7-0.5,1.1-1.3,1.1-2.3
				c0-1.5-2.1-2.7-6.4-3.7c-0.1,0-0.1,0-0.2,0c-0.1,0-0.3-0.1-0.5-0.1c-2.3-0.5-3.9-1.1-4.9-1.7c-0.9-0.6-1.5-1.3-2-2.2
				c-0.5-0.9-0.7-2-0.7-3.3c0-2.4,0.8-4.2,2.4-5.5c1.6-1.3,4-1.9,7-1.9c2.9,0,5.1,0.7,6.7,2c1.6,1.4,2.5,3.3,2.5,5.7h-4.8
				c-0.1-1.2-0.5-2.1-1.4-2.7c-0.8-0.6-2-0.9-3.5-0.9c-1.3,0-2.3,0.3-3,0.8c-0.7,0.5-1.1,1.2-1.1,2.2c0,1.3,1.4,2.3,4.2,2.9
				c0.8,0.2,1.3,0.3,1.8,0.4c1.8,0.5,3,0.8,3.8,1.1c0.7,0.3,1.4,0.5,2,0.8c1,0.6,1.7,1.3,2.2,2.2s0.7,2,0.7,3.3
				c0,2.5-0.9,4.5-2.6,5.9c-1.7,1.4-4.1,2.1-7.3,2.1c-3.1,0-5.5-0.7-7.2-2.1C183.4,117.5,182.5,115.4,182.4,112.8z"/>
			<path d="M211.9,120.3l-8.4-24.5h5.6l5.2,18.3l5.3-18.3h5.5l-8.3,24.5H211.9z"/>
			<path d="M245,117.5c-0.9,1.2-1.9,2.1-3.1,2.7c-1.2,0.6-2.5,0.9-4.1,0.9c-3.4,0-6.2-1.2-8.3-3.6c-2.1-2.4-3.2-5.5-3.2-9.4
				c0-3.9,1.1-7,3.2-9.3c2.1-2.3,4.9-3.5,8.5-3.5c3.1,0,5.6,0.7,7.5,2.2c1.9,1.5,3.1,3.5,3.5,6.1h-5.1c-0.3-1.3-0.9-2.2-1.9-2.9
				c-1-0.7-2.2-1-3.7-1c-2,0-3.7,0.8-4.8,2.2c-1.2,1.5-1.8,3.6-1.8,6.2c0,2.7,0.6,4.7,1.8,6.2c1.2,1.5,2.9,2.3,5,2.3
				c1.6,0,2.9-0.5,4-1.4c1.1-0.9,1.7-2.2,2-3.9h-5.5v-4.2H249v13.2h-3.4L245,117.5z"/>
			<path d="M269.3,120.3l-8.4-24.5h5.6l5.2,18.3l5.3-18.3h5.5l-8.3,24.5H269.3z"/>
			<path d="M284.8,120.3V95.9h17.8v4.3h-12.8v5.2h11.7v4.2h-11.7v6.3h13.4v4.5H284.8z"/>
			<path d="M307,120.3V95.9h5.3l9.9,16.8V95.9h5v24.5h-5.2l-10-16.8v16.8H307z"/>
			<path d="M337.2,120.3v-20.1H330v-4.4h19.5v4.4h-7.2v20.1H337.2z"/>
			<path d="M352.2,95.8h5.1v15.3c0,1.9,0.4,3.3,1.1,4.1c0.8,0.9,1.9,1.3,3.6,1.3c1.7,0,2.9-0.4,3.6-1.3c0.8-0.9,1.1-2.2,1.1-4.2
				V95.8h5v15.9c0,3-0.8,5.3-2.5,6.9c-1.7,1.6-4.1,2.4-7.2,2.4c-3.2,0-5.6-0.8-7.3-2.4c-1.7-1.6-2.5-3.9-2.5-6.9V95.8z"/>
			<path d="M376.8,120.3V95.9h11.9c2.7,0,4.6,0.6,5.9,1.7c1.3,1.1,1.9,2.9,1.9,5.2c0,1.5-0.3,2.7-0.9,3.7c-0.6,1-1.5,1.7-2.7,2
				c1.1,0.4,1.8,1,2.3,1.7c0.4,0.8,0.7,2,0.8,3.6l0.1,2.9c0,0,0,0.1,0,0.1c0,1.5,0.3,2.3,0.9,2.7v0.7h-5.5c-0.2-0.3-0.3-0.8-0.4-1.3
				c-0.1-0.5-0.2-1.1-0.2-1.8l-0.1-2.6c-0.1-1.5-0.3-2.5-0.9-3.1c-0.5-0.5-1.4-0.8-2.8-0.8h-5.3v9.5H376.8z M381.8,106.6h5.9
				c1.3,0,2.2-0.3,2.8-0.8c0.6-0.5,0.9-1.3,0.9-2.5c0-1.1-0.3-1.9-0.9-2.4c-0.6-0.5-1.5-0.8-2.6-0.8h-6.1V106.6z"/>
			<path d="M401,120.3V95.9h17.8v4.3H406v5.2h11.7v4.2H406v6.3h13.4v4.5H401z"/>
			<path d="M422.1,112.8h5c0.2,1.3,0.7,2.3,1.6,3c0.9,0.6,2.2,1,3.9,1c1.5,0,2.6-0.3,3.3-0.8c0.7-0.5,1.1-1.3,1.1-2.3
				c0-1.5-2.1-2.7-6.4-3.7c-0.1,0-0.1,0-0.2,0c-0.1,0-0.3-0.1-0.5-0.1c-2.3-0.5-3.9-1.1-4.9-1.7c-0.9-0.6-1.5-1.3-2-2.2
				c-0.5-0.9-0.7-2-0.7-3.3c0-2.4,0.8-4.2,2.4-5.5c1.6-1.3,4-1.9,7-1.9c2.9,0,5.1,0.7,6.7,2c1.6,1.4,2.5,3.3,2.5,5.7h-4.8
				c-0.1-1.2-0.5-2.1-1.4-2.7c-0.8-0.6-2-0.9-3.5-0.9c-1.3,0-2.3,0.3-3,0.8c-0.7,0.5-1.1,1.2-1.1,2.2c0,1.3,1.4,2.3,4.2,2.9
				c0.8,0.2,1.3,0.3,1.8,0.4c1.8,0.5,3,0.8,3.8,1.1c0.7,0.3,1.4,0.5,2,0.8c1,0.6,1.7,1.3,2.2,2.2s0.7,2,0.7,3.3
				c0,2.5-0.9,4.5-2.6,5.9c-1.7,1.4-4.1,2.1-7.3,2.1c-3.1,0-5.5-0.7-7.2-2.1C423.2,117.5,422.2,115.4,422.1,112.8z"/>
		</g>
		<g>
			<path d="M142.4,96.7h3.7v6.7c0.5-0.7,1-1.3,1.8-1.7c0.7-0.4,1.5-0.6,2.4-0.6c1.7,0,3.1,0.7,4.2,2.1c1.1,1.4,1.6,3.2,1.6,5.5
				c0,2.2-0.5,4-1.6,5.4c-1.1,1.4-2.5,2.1-4.2,2.1c-0.9,0-1.7-0.2-2.4-0.6c-0.7-0.4-1.3-1-1.8-1.8v1.9h-3.6V96.7z M152.3,108.6
				c0-1.3-0.3-2.3-0.8-3c-0.5-0.7-1.3-1.1-2.2-1.1c-1,0-1.8,0.4-2.3,1.1c-0.5,0.7-0.8,1.7-0.8,3.1c0,1.4,0.3,2.5,0.8,3.3
				c0.5,0.7,1.3,1.1,2.3,1.1c1,0,1.8-0.4,2.3-1.1C152,111.1,152.3,110,152.3,108.6z"/>
			<path d="M159.4,121.4v-3c0.1,0,0.2,0,0.4,0c0.1,0,0.3,0,0.5,0c0.7,0,1.3-0.2,1.7-0.5c0.4-0.3,0.6-0.9,0.6-1.6c0-0.1,0-0.1,0-0.2
				s0-0.1-0.1-0.2l-5.1-14.2h4.1l3,10.1l2.9-10.1h4l-5.8,16.6c-0.4,1.2-1,2.1-1.6,2.5c-0.6,0.5-1.6,0.7-2.9,0.7c-0.2,0-0.5,0-0.8,0
				C160,121.4,159.7,121.4,159.4,121.4z"/>
		</g>
	</g>
</g>
</svg>
