<?xml version="1.0" encoding="utf-8"?>
<!-- Generator: Adobe Illustrator 26.1.0, SVG Export Plug-In . SVG Version: 6.00 Build 0)  -->
<svg version="1.1" id="Layer_1" xmlns="http://www.w3.org/2000/svg" xmlns:xlink="http://www.w3.org/1999/xlink" x="0px" y="0px"
	 viewBox="0 0 48 48" style="enable-background:new 0 0 48 48;" xml:space="preserve">
<style type="text/css">
	.st0-agriculture{fill:none;}
	.st1-insights{fill:#FFFFFF;}
</style>
<g>
	<rect class="st0-agriculture" width="48" height="48"/>
</g>
<g>
	<g>
		<path class="st1-insights" d="M37.2,24c1.296,0,2.496,0.312,3.6,0.84V16.8c0-1.32-1.08-2.4-2.4-2.4H27.672l-1.92-1.92l2.544-2.544
			l-1.272-1.272l-6.36,6.384l1.272,1.272l2.544-2.544l1.92,1.92V21.6c0,1.32-1.08,2.4-2.4,2.4h-1.824C23.328,25.728,24,27.768,24,30
			c0,0.408-0.072,0.792-0.12,1.2h5.04C29.496,27.144,32.976,24,37.2,24z"/>
		<path class="st1-insights" d="M8.4,19.2h10.8c0-1.32-1.08-2.4-2.4-2.4H8.4c-0.672,0-1.2,0.528-1.2,1.2C7.2,18.672,7.728,19.2,8.4,19.2z"/>
		<path class="st1-insights" d="M37.2,26.4c-3.312,0-6,2.688-6,6s2.688,6,6,6c3.312,0,6-2.688,6-6S40.512,26.4,37.2,26.4z M37.2,36
			c-1.992,0-3.6-1.608-3.6-3.6s1.608-3.6,3.6-3.6s3.6,1.608,3.6,3.6S39.192,36,37.2,36z"/>
		<path class="st1-insights" d="M20.016,27.672l-0.336-0.84l1.08-0.456c-0.84-1.704-2.232-3.096-3.936-3.936l-0.456,1.08l-0.84-0.336
			l0.432-1.056c-0.864-0.336-1.776-0.528-2.76-0.528s-1.896,0.192-2.784,0.504l0.432,1.056l-0.816,0.36l-0.456-1.08
			c-1.728,0.816-3.12,2.208-3.936,3.936l1.08,0.456l-0.336,0.84L5.328,27.24C4.992,28.104,4.8,29.016,4.8,30
			c0,0.984,0.192,1.896,0.504,2.784l1.056-0.432l0.336,0.84l-1.08,0.456c0.816,1.728,2.208,3.12,3.936,3.936l0.456-1.08l0.84,0.336
			l-0.432,1.056c0.888,0.312,1.8,0.504,2.784,0.504s1.896-0.192,2.784-0.504l-0.432-1.056l0.84-0.336l0.456,1.08
			c1.728-0.816,3.12-2.208,3.936-3.936l-1.104-0.48l0.336-0.84l1.056,0.432C21.408,31.896,21.6,30.984,21.6,30
			c0-0.984-0.192-1.896-0.504-2.784L20.016,27.672z M13.2,36c-3.312,0-6-2.688-6-6s2.688-6,6-6s6,2.688,6,6S16.512,36,13.2,36z"/>
	</g>
</g>
</svg>
