<?xml version="1.0" encoding="utf-8"?>
<!-- Generator: Adobe Illustrator 26.1.0, SVG Export Plug-In . SVG Version: 6.00 Build 0)  -->
<svg version="1.1" id="Layer_1" xmlns="http://www.w3.org/2000/svg" xmlns:xlink="http://www.w3.org/1999/xlink" x="0px" y="0px"
	 viewBox="0 0 431.26407 431.26407" style="enable-background:new 0 0 431.26407 431.26407;" xml:space="preserve">
<style type="text/css">
	.st0-alert{display:none;}
	.st1-alert{display:inline;fill:none;stroke:#54B948;stroke-width:19;stroke-miterlimit:10;}
	.st2-alert{fill:#EE2C29;}
	.st3-alert{fill:#EE302B;}
	.st4-alert{fill:#EE2E2A;}
</style>
<g id="box" class="st0-alert">
	<path class="st1" d="M361.73874,421.76407H69.52534C36.37426,421.76407,9.5,394.88983,9.5,361.73874V69.52534
		C9.5,36.37426,36.37426,9.5,69.52534,9.5h292.21338c33.15109,0,60.02533,26.87426,60.02533,60.02534v292.21338
		C421.76407,394.88983,394.88983,421.76407,361.73874,421.76407z"/>
</g>
<g id="box_copy">
	<path class="st2-alert" d="M361.73898,431.26428H69.52513c-38.33643,0-69.5249-31.18945-69.5249-69.52539V69.52553
		c0-38.33643,31.18848-69.52539,69.5249-69.52539h292.21387c38.33594,0,69.52539,31.18896,69.52539,69.52539v263.1665
		c0,5.24707-4.25293,9.5-9.5,9.5s-9.5-4.25293-9.5-9.5V69.52553c0-27.85987-22.66602-50.52539-50.52539-50.52539H69.52513
		c-27.85938,0-50.52491,22.66553-50.52491,50.52539v292.21338c0,27.85938,22.66553,50.52539,50.52491,50.52539h292.21387
		c26.03027,0,47.63867-19.49512,50.26367-45.34863c0.53027-5.21973,5.19434-9.02246,10.41113-8.49121
		c5.21973,0.5293,9.02148,5.19141,8.49121,10.41113C427.29172,404.42542,397.55637,431.26428,361.73898,431.26428z"/>
</g>
<g id="Layer_7">
	<path class="st2-alert" d="M342.17453,335.45081H73.87816c-1.97363,0-3.79541-1.05762-4.7749-2.77051s-0.96582-3.82031,0.03564-5.52051
		L211.41869,85.54213c0.98828-1.67871,2.79102-2.70898,4.73926-2.70898c0.00293,0,0.00586,0,0.00879,0
		c1.95117,0.00293,3.75391,1.03955,4.73926,2.72363l131.15233,224.2993c1.5332,2.62207,0.65039,5.99121-1.97168,7.52441
		c-2.62207,1.53027-5.99023,0.65039-7.52441-1.97168L216.14134,99.20082L83.49974,324.45081h258.6748c3.03711,0,5.5,2.46289,5.5,5.5
		S345.21164,335.45081,342.17453,335.45081z"/>
	<path class="st3-alert" d="M215.33183,260.90598c-11.20224,0-12.39325-14.39323-12.39325-14.39323l-5-56.8315
		c0-11.81516,5.57808-21.39323,17.39323-21.39323h0.00005c11.81516,0,17.39322,9.57808,17.39322,21.39323l-4,56.8315
		C228.72508,246.51274,227.38802,260.90598,215.33183,260.90598z"/>
	
		<ellipse transform="matrix(0.16018 -0.98709 0.98709 0.16018 -107.94967 458.80875)" class="st4-alert" cx="215.65768" cy="292.84418" rx="13.69101" ry="13.69102"/>
</g>
</svg>
