<?xml version="1.0" encoding="utf-8"?>
<!-- Generator: Adobe Illustrator 26.1.0, SVG Export Plug-In . SVG Version: 6.00 Build 0)  -->
<svg version="1.1" xmlns="http://www.w3.org/2000/svg" xmlns:xlink="http://www.w3.org/1999/xlink" x="0px" y="0px"
	 viewBox="0 0 431.26416 431.26416" style="enable-background:new 0 0 431.26416 431.26416;" xml:space="preserve">
<style type="text/css">
	.st0-canopy {fill:#54B948;}
	.st1-canopy {display:none;}
	.st2-canopy {display:inline;fill:none;stroke:#54B948;stroke-width:6;stroke-linecap:round;stroke-linejoin:round;stroke-miterlimit:10;}
	.st3-canopy{display:inline;fill:none;stroke:#54B948;stroke-miterlimit:10;}
	.st4-canopy{display:inline;}
	.st5-canopy{fill:none;stroke:#54B948;stroke-width:6;stroke-linecap:round;stroke-linejoin:round;stroke-miterlimit:10;}
	.st6-canopy{display:inline;fill:none;stroke:#54B948;stroke-width:11;stroke-linecap:round;stroke-linejoin:round;stroke-miterlimit:10;}
</style>
<g id="box_copy">
	<path class="st0-canopy" d="M361.73877,431.26416H69.5249C31.18848,431.26416,0,400.07471,0,361.73877V69.52539
		C0,31.18896,31.18848,0,69.5249,0h292.21387c38.33594,0,69.52539,31.18896,69.52539,69.52539v263.1665
		c0,5.24707-4.25293,9.5-9.5,9.5s-9.5-4.25293-9.5-9.5V69.52539C412.26416,41.66553,389.59814,19,361.73877,19H69.5249
		C41.66553,19,19,41.66553,19,69.52539v292.21338c0,27.85938,22.66553,50.52539,50.5249,50.52539h292.21387
		c26.03027,0,47.63867-19.49512,50.26367-45.34863c0.53027-5.21973,5.19531-9.02148,10.41113-8.49121
		c5.21973,0.5293,9.02148,5.19141,8.49121,10.41113C427.2915,404.42529,397.55615,431.26416,361.73877,431.26416z"/>
</g>
<g id="Layer_7">
	<g id="leaf_00000092440453446976494030000008263205741258705798_" class="st1-canopy">
		<path class="st2-canopy" d="M56.36428,349.66077c-24.99425-4.89774-30.49983-26.79672-24.54691-42.68222
			c9.70311-25.89291,35.50086-34.39853,35.50086-34.39853s25.79775,8.50562,35.50086,34.39853
			c6.73995,17.98572-1.20873,43.68011-35.50086,43.68011v25.39325"/>
		<line class="st2-canopy" x1="67.31824" y1="337.37775" x2="67.31824" y2="290.14182"/>
		<line class="st2-canopy" x1="76.57666" y1="325.35529" x2="90.95869" y2="312.05191"/>
		<line class="st2-canopy" x1="58.77891" y1="312.95081" x2="49.61037" y2="304.53049"/>
	</g>
	<g id="leaf_00000056406528400500596170000015481463333403762352_">
		<path class="st0-canopy" d="M205.46924,336.30225c-0.66113,0-1.33252-0.13184-1.97803-0.41113
			c-2.53418-1.09375-3.70312-4.0332-2.61084-6.56738c0.30029-0.69727,7.46875-17.1582,17.18652-24.65625
			c4.71191-3.63574,10.46191-6.7207,14.61621-8.73535c-10.04102-16.49414-8.88477-29.75391-5.8877-38.25977
			c4.26562-12.1084,15.14551-21.88477,28.39258-25.51465c31.90918-8.74609,57.85742,9.66602,58.94629,10.4541
			c0.86816,0.62793,1.51074,1.51758,1.83496,2.53711c0.40625,1.28125,9.75195,31.69141-8.55371,59.25293
			c-7.08887,10.67188-18.44141,17.87402-30.36621,19.26562c-10.97559,1.2832-21.43359-2.39648-30.24121-10.63574
			c-2.0166-1.88672-2.12207-5.05078-0.23535-7.06738c1.88672-2.01465,5.04883-2.12305,7.06738-0.23535
			c6.5918,6.16699,14.28418,8.9375,22.25,8.00684c8.90625-1.04004,17.79492-6.73633,23.19531-14.86719
			c13.38867-20.15723,9.26855-42.87402,7.78027-49.07129c-5.40332-3.34668-25.68945-14.38867-49.03516-7.99512
			c-10.13281,2.77637-18.41016,10.13086-21.60352,19.19238c-3.58984,10.19238-0.84863,21.99707,7.92871,34.13867
			c0.89941,1.24512,1.17773,2.83301,0.75391,4.30859c-0.42285,1.47559-1.50098,2.6748-2.92285,3.25293
			c-0.10449,0.04297-10.66309,4.37402-17.81055,9.88965c-6.35645,4.9043-12.34326,16.60449-14.11328,20.69922
			C209.24609,335.17236,207.40381,336.30225,205.46924,336.30225z"/>
		<path class="st0-canopy" d="M252.20068,292.31982c-0.93066,0-1.84766-0.43066-2.43457-1.24219
			c-0.9707-1.34277-0.66895-3.21875,0.67383-4.18945l43.01367-31.0957c1.34375-0.9707,3.21875-0.66797,4.18945,0.67383
			c0.9707,1.34277,0.66895,3.21875-0.67383,4.18945l-43.01367,31.0957C253.42432,292.13525,252.80908,292.31982,252.20068,292.31982
			z"/>
		<path class="st0-canopy" d="M257.05518,275.97412c-0.12012,0-0.24219-0.00684-0.36426-0.02148
			c-1.64551-0.19922-2.81738-1.69434-2.61816-3.33887l2.64551-21.85352c0.19922-1.64453,1.69824-2.81348,3.33887-2.61816
			c1.64551,0.19922,2.81738,1.69434,2.61816,3.33887l-2.64551,21.85352
			C259.84521,274.85693,258.55127,275.97412,257.05518,275.97412z"/>
		<path class="st0-canopy" d="M293.76904,286.82178c-0.19922,0-0.40137-0.02051-0.60449-0.06152l-13.70312-2.80566
			c-1.62305-0.33301-2.66992-1.91797-2.33789-3.54102c0.33301-1.62305,1.91309-2.66699,3.54102-2.33789l13.70312,2.80566
			c1.62305,0.33301,2.66992,1.91797,2.33789,3.54102C296.41455,285.84229,295.16455,286.82178,293.76904,286.82178z"/>
	</g>
	<g id="leaf_00000125590059252814545430000003257884956372166298_">
		<path class="st0-canopy" d="M204.47656,315.60205c-2.57617,0.00098-4.76318-1.97754-4.97803-4.58984
			c-0.01172-0.13672-1.43018-15.05469-11.85352-26.06348c-4.05957-4.28711-10.17432-8.74121-10.23584-8.78613
			c-1.14453-0.83105-1.88428-2.1084-2.03467-3.51562c-0.15039-1.40625,0.30176-2.81152,1.24512-3.86523
			c9.9751-11.14844,13.92139-22.58691,11.41211-33.08008c-2.23145-9.33008-9.68994-17.49072-19.46436-21.29736
			c-22.6377-8.81592-43.81836,0.06543-49.52295,2.8501c-2.1123,5.97559-8.57568,28.125,2.64014,49.54688
			c4.60547,8.7959,12.75537,15.47168,21.26855,17.41992c7.65039,1.74609,15.22412-0.10742,22.5166-5.51758
			c2.21729-1.64648,5.3501-1.18262,6.99512,1.03516c1.64551,2.2168,1.18213,5.34863-1.03564,6.99414
			c-9.60938,7.13184-20.22754,9.63379-30.70703,7.23633c-11.45459-2.62207-21.8833-11.04395-27.89697-22.5293
			c-15.32764-29.27539-2.89209-58.51514-2.35498-59.74512c0.42822-0.98145,1.15967-1.79932,2.0874-2.3335
			c1.16357-0.66943,28.84863-16.2666,59.63867-4.27539c12.78418,4.97852,22.57861,15.81836,25.56104,28.28955
			c2.12109,8.86914,1.86523,22.38086-10.25146,37.96582c2.27002,1.84766,5.07129,4.27246,7.3999,6.73242
			c12.90332,13.62598,14.49756,31.37012,14.55957,32.11816c0.22607,2.75293-1.82129,5.16699-4.57373,5.39355
			C204.75244,315.59619,204.61377,315.60205,204.47656,315.60205z"/>
		<path class="st0-canopy" d="M169.23877,265.17822c-0.7124,0-1.42676-0.25195-1.99951-0.76465l-39.50098-35.34375
			c-1.23486-1.10449-1.33984-3.00098-0.23535-4.23535c1.10547-1.2373,3.00049-1.34082,4.23633-0.23535l39.50098,35.34375
			c1.23486,1.10449,1.33984,3.00098,0.23535,4.23535C170.88281,264.84131,170.0625,265.17822,169.23877,265.17822z"/>
		<path class="st0-canopy" d="M166.1123,248.44092c-1.63379,0-2.97168-1.31055-2.99854-2.9502l-0.36328-21.98145
			c-0.02734-1.65723,1.29346-3.02197,2.94971-3.04932c1.69873-0.03906,3.02197,1.29346,3.04932,2.94971l0.36328,21.98145
			c0.02734,1.65723-1.29346,3.02246-2.94971,3.0498C166.146,248.44092,166.12891,248.44092,166.1123,248.44092z"/>
		<path class="st0-canopy" d="M128.51807,255.40869c-1.5249,0-2.83008-1.15723-2.98242-2.70703
			c-0.16162-1.64844,1.04346-3.11621,2.69238-3.27832l13.90186-1.36621c1.65039-0.1582,3.11719,1.04297,3.2793,2.69238
			c0.16162,1.64844-1.04346,3.11621-2.69238,3.27832l-13.90186,1.36621
			C128.71533,255.40381,128.61621,255.40869,128.51807,255.40869z"/>
	</g>
	<g id="leaf_00000014609316710473850440000006558632225370016678_">
		<path class="st0-canopy" d="M204.58691,340.21436c-2.76123,0-5-2.23828-5-5v-38.75977c0-17.48828,1.31836-29.7002,8.27295-44.12598
			c5.38672-11.17285,5.24121-18.58203,5.125-24.53613c-0.0166-0.8418-0.03223-1.64062-0.03223-2.40039
			c0-0.06738,0.00098-0.13477,0.00391-0.20215l0.72168-17.87207c0.10938-2.72559,2.37109-4.87451,5.11133-4.79688
			c12.64551,0.2876,22.22168-3.65332,28.40918-11.7251c6.78027-8.84424,8.81641-22.53711,5.18945-34.88525
			c-7.25-24.67383-25.77148-36.12158-31.62402-39.19971c-5.97363,2.79785-25.01367,13.38037-33.39404,37.70361
			c-5.41846,15.72803-2.16309,36.52197,17.78906,45.0083c2.54102,1.08105,3.7251,4.01709,2.64404,6.55811
			c-1.08105,2.54053-4.01807,3.72363-6.55811,2.64404c-24.69482-10.50391-30.42871-36.86084-23.32959-57.46777
			c11.56885-33.57812,40.06934-44.20801,41.27734-44.64404c1.1709-0.42236,2.45996-0.39355,3.61133,0.08301
			c1.18555,0.49121,29.16699,12.4209,39.17773,46.49561c4.56641,15.54346,1.94336,32.32178-6.84668,43.78809
			c-5.17969,6.75684-14.77637,14.62012-31.65527,15.56201l-0.52734,13.04883c0.00098,0.66797,0.01562,1.36914,0.03027,2.10547
			c0.12305,6.27246,0.30859,15.75195-6.11523,29.0752c-6.15479,12.7666-7.28076,23.41406-7.28076,39.7832v38.75977
			C209.58691,337.97607,207.34814,340.21436,204.58691,340.21436z"/>
		<path class="st0-canopy" d="M219.05225,196.58398c-0.02344,0-0.04688-0.00049-0.07031-0.00098
			c-1.65625-0.03809-2.96777-1.41162-2.92969-3.06787l1.34082-58.26172c0.03809-1.65625,1.43945-2.94727,3.06836-2.93018
			c1.65625,0.03809,2.96777,1.41162,2.92969,3.06787l-1.34082,58.26172
			C222.01318,195.28564,220.67725,196.58398,219.05225,196.58398z"/>
		<path class="st0-canopy" d="M229.11279,181.979c-0.75,0-1.5-0.27881-2.08203-0.83984c-1.19238-1.14941-1.22754-3.04883-0.07812-4.2417
			l15.47656-16.06104c1.15039-1.19287,3.05078-1.22705,4.24219-0.07861c1.19238,1.14941,1.22754,3.04883,0.07812,4.2417
			l-15.47656,16.06104C230.68408,181.67139,229.89893,181.979,229.11279,181.979z"/>
		<path class="st0-canopy" d="M210.78027,166.24854c-0.8291,0-1.65479-0.3418-2.24756-1.01172l-9.38623-10.60693
			c-1.09814-1.24121-0.98242-3.13672,0.2583-4.23486c1.24023-1.09766,3.13672-0.98242,4.23486,0.2583l9.38623,10.60693
			c1.09766,1.24121,0.98242,3.13672-0.25879,4.23486C212.19678,166.00049,211.48682,166.24854,210.78027,166.24854z"/>
	</g>
	<path class="st0-canopy" d="M304.11865,364.52686c-15.10352,0-24.54004-4.91602-34.53125-10.12109
		c-12.1543-6.33203-24.72168-12.87891-50.95605-12.87891c-26.33154,0-40.854,6.88672-53.6665,12.96191
		c-10.88574,5.16211-21.16748,10.03809-36.17236,10.03809c-18.67285,0-31.24707-7.39453-31.77295-7.70898
		c-2.36963-1.41797-3.1416-4.48828-1.72363-6.8584c1.41748-2.36914,4.4873-3.13965,6.85742-1.72363
		c0.09229,0.05469,10.86377,6.29102,26.63916,6.29102c12.75439,0,21.62109-4.20508,31.8877-9.07324
		c13.76562-6.52832,29.36865-13.92676,57.95117-13.92676c28.68262,0,42.9707,7.44336,55.57617,14.01074
		c9.25977,4.82324,17.25586,8.98926,29.91113,8.98926c15.77539,0,26.54785-6.23633,26.6543-6.2998
		c2.375-1.39648,5.43848-0.61621,6.84473,1.75195c1.40625,2.36914,0.63867,5.4248-1.72461,6.83887
		C335.3667,357.13232,322.7915,364.52686,304.11865,364.52686z"/>
	<path class="st0-canopy" d="M376.46143,239.60107c-3.03711,0-5.5-2.46289-5.5-5.5c0-85.4541-69.52246-154.97607-154.97656-154.97607
		c-85.45459,0-154.97656,69.52197-154.97656,154.97607c0,3.03711-2.4624,5.5-5.5,5.5s-5.5-2.46289-5.5-5.5
		c0-91.51953,74.45654-165.97607,165.97656-165.97607c91.51953,0,165.97656,74.45654,165.97656,165.97607
		C381.96143,237.13818,379.49854,239.60107,376.46143,239.60107z"/>
</g>
<g id="backup" class="st1-canopy">
	<g id="leaf_x5F_original">
		<path class="st3-canopy" d="M138.41136,248.18886c-24.99425-4.89774-30.49982-26.79672-24.54691-42.68221
			c9.70311-25.89294,35.50085-34.39856,35.50085-34.39856s25.79776,8.50562,35.50087,34.39856
			c6.73994,17.98569-1.20872,43.6801-35.50087,43.6801v25.39326"/>
		<line class="st3-canopy" x1="149.36531" y1="235.90585" x2="149.36531" y2="188.66989"/>
		<line class="st3-canopy" x1="158.62375" y1="223.88338" x2="173.00577" y2="210.58"/>
		<line class="st3-canopy" x1="140.82599" y1="211.47888" x2="131.65746" y2="203.05858"/>
	</g>
	<g id="leaf_00000013874609182438517960000000750521109754021504_" class="st4-canopy">
		<path class="st5-canopy" d="M247.55594,307.1373c21.31345,13.94412,40.54446,2.11005,47.37357-13.41895
			c11.13126-25.31183-1.39944-49.41267-1.39944-49.41267s-24.40765-11.92213-49.43225-0.15933
			c-17.38254,8.17064-29.63123,32.11543-5.08075,56.05754c0,0-9.11397,5.68887-15.03577,12.15363
			c-6.68489,7.29776-13.9276,21.99869-13.9276,21.99869"/>
		<line class="st5-canopy" x1="248.28954" y1="290.6958" x2="281.26874" y2="256.87854"/>
		<line class="st5-canopy" x1="250.05507" y1="275.6246" x2="249.04683" y2="256.05917"/>
		<line class="st5-canopy" x1="271.45746" y1="279.16998" x2="283.9003" y2="279.543"/>
	</g>
	<g id="leaf_00000055695617076799570610000007552189289403095475_">
		<path class="st2-canopy" d="M56.36428,349.66077c-24.99425-4.89774-30.49983-26.79672-24.54691-42.68222
			c9.70311-25.89291,35.50086-34.39853,35.50086-34.39853s25.79775,8.50562,35.50086,34.39853
			c6.73995,17.98572-1.20873,43.68011-35.50086,43.68011v25.39325"/>
		<line class="st2-canopy" x1="67.31824" y1="337.37775" x2="67.31824" y2="290.14182"/>
		<line class="st2-canopy" x1="76.57666" y1="325.35529" x2="90.95869" y2="312.05191"/>
		<line class="st2-canopy" x1="58.77891" y1="312.95081" x2="49.61037" y2="304.53049"/>
	</g>
	<g id="leaf_00000166676535943409148290000008233940841029061033_" class="st4-canopy">
		<path class="st5-canopy" d="M183.56772,273.72684c-21.16722,14.1651-40.52031,2.53174-47.5106-12.92535
			c-11.394-25.19466,0.8853-49.42456,0.8853-49.42456s24.28227-12.17542,49.4279-0.67361
			c17.4666,7.98936,29.96375,31.80544,5.66368,56.00165c0,0,5.67935,4.39648,9.24144,8.91965
			c5.12358,6.50595,8.67581,18.07452,8.67581,18.07452"/>
		<line class="st5-canopy" x1="182.66312" y1="257.29385" x2="149.33385" y2="223.82155"/>
		<line class="st5-canopy" x1="180.74088" y1="242.24184" x2="181.54552" y2="222.66699"/>
		<line class="st5-canopy" x1="159.37654" y1="246.0097" x2="146.93825" y2="246.51216"/>
	</g>
	<g id="leaf_00000164497546059141711590000016840591274094726542_" class="st4-canopy">
		<path class="st5-canopy" d="M212.19261,202.2932c-21.34932-5.43523-25.56848-27.63712-20.08765-43.5457
			c8.93359-25.93057,31.28418-34.00159,31.28418-34.00159s21.95552,9.09097,29.68643,35.40517
			c5.37001,18.27832-2.05241,44.04329-31.49976,43.36539l-0.58974,14.61829c0,5.09286,0.89818,19.82468-4.57135,31.16963
			c-5.5907,11.59631-6.36104,21.33051-6.36104,34.31647c0,12.98599,0,52.96976,0,52.96976"/>
		<line class="st5-canopy" x1="221.88426" y1="190.11787" x2="222.98129" y2="142.46333"/>
		<line class="st5-canopy" x1="230.11388" y1="178.17189" x2="242.77296" y2="165.03494"/>
		<line class="st5-canopy" x1="215.11867" y1="165.30565" x2="207.44102" y2="156.62947"/>
	</g>
	<path class="st2-canopy" d="M330.32526,352.52649c0,0-11.70026,7-29.20618,7c-31.30307,0-36.15701-23-85.48726-23
		s-58.53616,23-89.83923,23c-17.50593,0-29.2062-7-29.2062-7"/>
	<path class="st6-canopy" d="M55.50822,234.10149c0-88.62874,71.84779-160.47653,160.47653-160.47653
		s160.47652,71.84779,160.47652,160.47653"/>
</g>
<g id="Layer_4_copy">
</g>
</svg>
