<?xml version="1.0" encoding="utf-8"?>
<!-- Generator: Adobe Illustrator 26.2.0, SVG Export Plug-In . SVG Version: 6.00 Build 0)  -->
<svg version="1.1" xmlns="http://www.w3.org/2000/svg" xmlns:xlink="http://www.w3.org/1999/xlink" x="0px" y="0px"
	 viewBox="0 0 431.26416 431.26416" style="enable-background:new 0 0 431.26416 431.26416;" xml:space="preserve">
<style type="text/css">
	.st0-coin{fill:#3AA0D9;}
	.st1-coin{fill:#249ED9;}
</style>
<g id="Layer_14">
	<path class="st0-coin" d="M361.73877,431.26416H69.5249C31.18848,431.26416,0,400.07471,0,361.73877V69.52539
		C0,31.18896,31.18848,0,69.5249,0h292.21387c38.33594,0,69.52539,31.18896,69.52539,69.52539v263.1665
		c0,5.24707-4.25293,9.5-9.5,9.5s-9.5-4.25293-9.5-9.5V69.52539C412.26416,41.66553,389.59814,19,361.73877,19H69.5249
		C41.66553,19,19,41.66553,19,69.52539v292.21338c0,27.85938,22.66553,50.52539,50.5249,50.52539h292.21387
		c26.03027,0,47.63867-19.49512,50.26367-45.34863c0.53027-5.21973,5.19629-9.02148,10.41113-8.49121
		c5.21973,0.5293,9.02148,5.19141,8.49121,10.41113C427.2915,404.42529,397.55615,431.26416,361.73877,431.26416z"/>
</g>
<g id="coin_x5F_stack_00000119815355972965019590000015455048555931915944_">
	<path class="st0-coin" d="M221.47803,333.31006c-60.40967,0-111.06445-23.65332-120.4458-56.24316
		c-0.6875-2.38867,0.69092-4.88184,3.07959-5.56934c2.38916-0.69238,4.88086,0.69141,5.56885,3.0791
		c8.16211,28.35254,56.22412,49.7334,111.79736,49.7334c30.65625,0,59.4082-6.31738,80.95801-17.78906
		c20.65137-10.99316,32.02441-25.28809,32.02441-40.25c0-2.48535,2.01465-4.5,4.5-4.5s4.5,2.01465,4.5,4.5
		c0,18.44727-13.06738,35.56348-36.79492,48.19434C283.83643,326.61768,253.5835,333.31006,221.47803,333.31006z"/>
	<path class="st0-coin" d="M221.47803,370.82764c-63.84131,0-121.98291-30.38965-121.98291-63.75781v-31.25195
		c0-2.48535,2.01465-4.5,4.5-4.5s4.5,2.01465,4.5,4.5v31.25195c0,12.11035,11.96875,25.68164,32.0166,36.30371
		c22.46094,11.90039,51.21533,18.4541,80.96631,18.4541s58.50488-6.55371,80.96582-18.4541
		c20.04785-10.62207,32.0166-24.19336,32.0166-36.30371V266.2749c0-2.48535,2.01465-4.5,4.5-4.5s4.5,2.01465,4.5,4.5v40.79492
		C343.46045,340.43799,285.31885,370.82764,221.47803,370.82764z"/>
	<path class="st0-coin" d="M151.18457,348.50244c-1.10449,0-2-0.89551-2-2V318.4585c0-1.10449,0.89551-2,2-2s2,0.89551,2,2v28.04395
		C153.18457,347.60693,152.28906,348.50244,151.18457,348.50244z"/>
	<path class="st0-coin" d="M290.0249,355.57666c-1.10449,0-2-0.89551-2-2v-35.48535c0-1.10449,0.89551-2,2-2s2,0.89551,2,2v35.48535
		C292.0249,354.68115,291.12939,355.57666,290.0249,355.57666z"/>
	<path class="st0-coin" d="M338.96045,272.271c-3.31348,0-6-2.68652-6-6c0-8.90723-4.39551-17.0332-13.83301-25.57324
		c-2.45703-2.22363-2.64648-6.01758-0.42383-8.47461c2.22363-2.45801,6.01855-2.64746,8.47461-0.42383
		c12.13184,10.97852,17.78223,21.93164,17.78223,34.47168C344.96045,269.58447,342.27393,272.271,338.96045,272.271z"/>
	<path class="st0-coin" d="M221.47803,372.32764c-31.43359,0-61.93408-6.9873-85.88232-19.67578
		c-23.89551-12.66016-37.60059-29.27441-37.60059-45.58203v-31.76367c0-3.31348,2.68604-6,6-6s6,2.68652,6,6v31.76367
		c0,24.12305,49.72852,53.25781,111.48291,53.25781c61.75391,0,111.48242-29.13477,111.48242-53.25781V266.2749
		c0-3.31348,2.68652-6,6-6s6,2.68652,6,6v40.79492c0,16.30762-13.70508,32.92188-37.60059,45.58203
		C283.41162,365.34033,252.91162,372.32764,221.47803,372.32764z"/>
	<path class="st0-coin" d="M204.44385,272.12646c-32.10547,0-62.35889-6.69238-85.1875-18.84473
		c-23.72803-12.63086-36.79541-29.74609-36.79541-48.19385c0-12.30762,5.95703-24.28369,17.22656-34.63281
		c1.83008-1.68018,4.67773-1.56055,6.3584,0.271c1.68115,1.83008,1.55957,4.67676-0.271,6.35791
		c-9.36426,8.59961-14.31396,18.2832-14.31396,28.00391c0,14.96191,11.37305,29.25635,32.02441,40.24951
		c21.55029,11.47168,50.30176,17.78906,80.9585,17.78906c58.53418,0,108.01074-23.51758,112.6377-53.54102
		c0.65137-4.21973,4.27246-4.29639,4.65137-4.28418c0.80078,0.01074,3.18164,0.29102,4.20312,3.10205
		c0.31348,0.61328,0.49023,1.30811,0.49023,2.04443c0,1.47949-0.40918,2.52002-0.97363,3.25195
		C317.81885,247.20752,266.65771,272.12646,204.44385,272.12646z"/>
	<path class="st0-coin" d="M204.44385,309.64502c-63.84131,0-121.98291-30.38965-121.98291-63.75781v-40.7959
		c0-2.48535,2.01465-4.5,4.5-4.5s4.5,2.01465,4.5,4.5v40.7959c0,12.11035,11.96875,25.68164,32.0166,36.30371
		c22.46143,11.90039,51.21582,18.4541,80.96631,18.4541c29.75,0,58.50488-6.55371,80.96582-18.4541
		c20.04785-10.62207,32.0166-24.19336,32.0166-36.30371v-35.43604c0-2.48535,2.01465-4.5,4.5-4.5s4.5,2.01465,4.5,4.5v35.43604
		C326.42627,279.25537,268.28467,309.64502,204.44385,309.64502z"/>
	<path class="st0-coin" d="M119.41162,285.979c-1.10449,0-2-0.89551-2-2v-34.74316c0-1.10449,0.89551-2,2-2s2,0.89551,2,2V283.979
		C121.41162,285.0835,120.51611,285.979,119.41162,285.979z"/>
	<path class="st0-coin" d="M239.49268,305.11279c-1.10449,0-2-0.89551-2-2v-35.48633c0-1.10449,0.89551-2,2-2s2,0.89551,2,2v35.48633
		C241.49268,304.21729,240.59717,305.11279,239.49268,305.11279z"/>
	<path class="st0-coin" d="M304.89209,280.91846c-1.10449,0-2-0.89551-2-2v-35.48633c0-1.10449,0.89551-2,2-2s2,0.89551,2,2v35.48633
		C306.89209,280.02295,305.99658,280.91846,304.89209,280.91846z"/>
	<path class="st0-coin" d="M204.44385,311.14502c-31.43359,0-61.93359-6.98828-85.88232-19.67578
		c-23.89551-12.66113-37.60059-29.27441-37.60059-45.58203v-40.7959c0-13.26025,6.59863-26.04248,19.08203-36.96875
		c2.49268-2.18359,6.28369-1.93066,8.46631,0.56299s1.93066,6.28418-0.56299,8.46631
		c-6.83643,5.98389-14.98535,15.6875-14.98535,27.93604v40.79932c0,24.12305,49.72852,53.25781,111.48291,53.25781
		c61.75391,0,111.48242-29.13477,111.48242-53.25781V211.9834c0-3.31348,2.68652-6,6-6s6,2.68652,6,6v33.90381
		c0,16.30762-13.70508,32.9209-37.60059,45.58203C266.37744,304.15674,235.87744,311.14502,204.44385,311.14502z"/>
	<path class="st0-coin" d="M221.47803,207.35791c-32.10498,0-62.35889-6.69238-85.1875-18.84473
		c-23.72803-12.63135-36.79541-29.74658-36.79541-48.19434c0-18.44727,13.06738-35.56299,36.79541-48.19385
		c22.82861-12.15234,53.08252-18.84473,85.1875-18.84473c32.10449,0,62.3584,6.69238,85.1875,18.84473
		c23.72754,12.63086,36.79492,29.74658,36.79492,48.19385c0,18.44775-13.06738,35.56299-36.79492,48.19434
		C283.83643,200.66553,253.5835,207.35791,221.47803,207.35791z M221.47803,82.28027c-30.65674,0-59.4082,6.31787-80.9585,17.78955
		c-20.65137,10.99316-32.02441,25.28711-32.02441,40.24902c0,14.9624,11.37305,29.25635,32.02441,40.24951
		c21.55029,11.47168,50.30176,17.78955,80.9585,17.78955c30.65625,0,59.4082-6.31787,80.95801-17.78955
		c20.65137-10.99316,32.02441-25.28711,32.02441-40.24951c0-14.96191-11.37305-29.25586-32.02441-40.24902
		C280.88623,88.59814,252.13428,82.28027,221.47803,82.28027z"/>
	<path class="st0-coin" d="M227.71631,182.15576c-0.00977-0.06982-0.00977-0.13965-0.00977-0.20996l0,0
		c0-2.12012,1.66016-3.87988,3.7998-3.98975l0,0c2.2002-0.12012,4.08008,1.58008,4.2002,3.79004l0,0c0,0.06982,0,0.12988,0,0.19971
		l0,0c0,2.12012-1.66016,3.89014-3.79004,4l0,0l0,0l0,0c-0.07031,0-0.13965,0-0.20996,0l0,0
		C229.58643,185.9458,227.81689,184.28613,227.71631,182.15576z M211.12646,185.80566
		c-2.12988-0.11963-3.75977-1.86963-3.77002-3.95996l0,0c0-0.08984,0-0.17969,0-0.25977l0,0
		c0.13037-2.20996,2.02002-3.89014,4.22998-3.76025l0,0c2.12012,0.12012,3.75977,1.87012,3.77051,3.97021l0,0
		c0,0.08008,0,0.16992-0.01074,0.25977l0,0c-0.11914,2.12012-1.88965,3.76025-3.98975,3.76025l0,0
		C211.27637,185.81592,211.19678,185.81592,211.12646,185.80566z M248.00635,180.45605
		c-0.04004-0.22021-0.0498-0.43994-0.0498-0.66016l0,0c0-1.91992,1.40039-3.60986,3.36035-3.93018l0,0
		c2.17969-0.34961,4.22949,1.13037,4.58008,3.31006l0,0c0.04004,0.22021,0.05957,0.43994,0.05957,0.66016l0,0
		c-0.00977,1.91992-1.40039,3.60986-3.36035,3.93018l0,0l0,0l0,0c-0.21973,0.02979-0.42969,0.0498-0.64941,0.0498l0,0
		C250.02686,183.81592,248.32666,182.41602,248.00635,180.45605z M190.50684,183.67578
		c-1.98047-0.2998-3.40039-2.00977-3.40039-3.94971l0,0c0-0.2002,0.02002-0.40039,0.05029-0.61035l0,0
		c0.33008-2.17969,2.36963-3.67969,4.56006-3.34961l0,0c1.97998,0.30957,3.38965,2.00977,3.38965,3.94971l0,0
		c0,0.2002-0.00977,0.41016-0.0498,0.60986l0,0c-0.2998,1.97998-2,3.40039-3.93994,3.40039l0,0
		C190.90674,183.72607,190.70654,183.70605,190.50684,183.67578z M170.1167,179.27588
		c-1.76025-0.50977-2.91016-2.12012-2.8999-3.85986l0,0c0-0.36035,0.0498-0.72998,0.15967-1.09033l0,0
		c0.61035-2.12988,2.83008-3.34961,4.9502-2.73975l0,0c1.75977,0.50977,2.8999,2.10986,2.89014,3.85986l0,0
		c0,0.35986-0.05029,0.72998-0.15039,1.09033l0,0c-0.50977,1.75977-2.10986,2.8999-3.84961,2.8999l0,0
		C170.85645,179.43604,170.48682,179.38574,170.1167,179.27588z M267.96631,176.4458
		c-0.10938-0.37988-0.16992-0.77002-0.16992-1.14014l0,0c0-1.72998,1.11035-3.31982,2.85059-3.84961l0,0
		c2.10938-0.63037,4.33984,0.56982,4.97949,2.67969l0,0c0.12012,0.38037,0.16992,0.76025,0.16992,1.14014l0,0
		c0.00977,1.72998-1.10938,3.31982-2.83984,3.83984l0,0c-0.38965,0.12012-0.78027,0.17041-1.16016,0.17041l0,0
		C270.07666,179.28613,268.48682,178.17578,267.96631,176.4458z M150.43652,171.63574
		c-1.37988-0.71973-2.16992-2.11963-2.16992-3.56982l0,0c0-0.62012,0.1499-1.24023,0.4502-1.81982l0,0
		c1.00977-1.97021,3.41992-2.74023,5.38965-1.72998l0,0c1.38037,0.71973,2.16992,2.11963,2.16016,3.56982l0,0
		c0,0.62012-0.14014,1.23975-0.43994,1.81982l0,0c-0.70996,1.38037-2.10986,2.16992-3.56006,2.16992l0,0
		C151.64648,172.07568,151.02637,171.93604,150.43652,171.63574z M287.14697,169.61572
		c-0.30078-0.57959-0.44043-1.19971-0.44043-1.81982l0,0c-0.00977-1.4502,0.78027-2.85986,2.16016-3.56982l0,0
		c1.95996-1.01025,4.37012-0.25,5.38965,1.71973l0,0c0.2998,0.58008,0.44043,1.2002,0.4502,1.82031l0,0
		c0,1.44971-0.79004,2.84961-2.16992,3.56982l0,0l0,0l0,0c-0.58008,0.2998-1.20996,0.43994-1.83008,0.43994l0,0
		C289.25635,171.77588,287.85693,170.99609,287.14697,169.61572z M132.99658,158.77588
		c-0.7002-0.77002-1.04004-1.72998-1.04004-2.68994l0,0c0-1.08984,0.4502-2.18018,1.31982-2.95996l0,0
		c1.63037-1.49023,4.16016-1.37012,5.65039,0.27002l0,0c0.68994,0.77002,1.02979,1.72998,1.02979,2.68994l0,0
		c0,1.08984-0.43994,2.16992-1.31006,2.95996l0,0c-0.77002,0.7002-1.72998,1.04004-2.68994,1.04004l0,0
		C134.8667,160.08594,133.78662,159.646,132.99658,158.77588z M304.39697,158.8457c-0.83008-0.79004-1.25-1.83984-1.25-2.8999l0,0
		c0-0.98975,0.35938-1.97998,1.08984-2.75977l0,0c1.51953-1.61035,4.0498-1.68018,5.66016-0.16016l0,0
		c0.81934,0.77979,1.23926,1.83008,1.25,2.89014l0,0c0,0.98975-0.36035,1.98975-1.09082,2.77002l0,0
		c-0.79004,0.83008-1.84961,1.25-2.90918,1.25l0,0C306.15674,159.93604,305.17627,159.57568,304.39697,158.8457z
		 M311.26611,137.8457h0.01074c0-2.20996,1.79004-4,4-4l0,0c2.2002,0,3.98926,1.79004,3.98926,4l0,0c0,0,0,0,0.01074,0l0,0
		c0,2.20996-1.7998,4-4,4l0,0C313.06689,141.8457,311.26611,140.05566,311.26611,137.8457z M124.1167,137.82568
		c0-2.19971,1.79004-4,4-4l0,0c2.20996,0,4,1.79004,4,4l0,0c0.00977,2.21045-1.78027,4-3.99023,4l0,0
		C125.9165,141.82568,124.12646,140.03613,124.1167,137.82568z M304.24658,122.51611
		c-0.74023-0.78027-1.09961-1.78027-1.08984-2.77002l0,0c0-1.05029,0.41992-2.1001,1.25-2.89014l0,0
		c1.60938-1.51025,4.13965-1.43994,5.66016,0.16016l0,0c0,0,0,0-0.01074,0.00977l0,0
		c0.74023,0.77002,1.10059,1.77002,1.10059,2.76025l0,0c-0.00977,1.0498-0.42969,2.10986-1.25977,2.88965l0,0
		c-0.77051,0.72998-1.76074,1.09033-2.74023,1.09033l0,0C306.09619,123.76611,305.03662,123.3457,304.24658,122.51611z
		 M133.2666,122.53613c-0.87012-0.79004-1.31006-1.88037-1.31006-2.96045l0,0c0-0.95996,0.33984-1.92969,1.04004-2.68994l0,0
		c1.47998-1.63965,4.01025-1.75977,5.6499-0.27002l0,0c0.87012,0.79004,1.31006,1.87012,1.31006,2.95996l0,0
		c0,0.96045-0.3501,1.92041-1.04004,2.69043l0,0c-0.79004,0.86963-1.87988,1.30957-2.95996,1.30957l0,0
		C134.99658,123.57568,134.02637,123.22607,133.2666,122.53613z M288.87646,111.46582v0.01025
		c-1.37988-0.72021-2.16992-2.12012-2.16992-3.58008l0,0c0.00977-0.60986,0.15039-1.22998,0.4502-1.82031l0,0
		c1.01953-1.95996,3.42969-2.72998,5.38965-1.70996l0,0c1.37988,0.70996,2.16992,2.12012,2.16992,3.57031l0,0
		c-0.00977,0.60986-0.14941,1.23975-0.4502,1.81982l0,0c-0.70996,1.37012-2.10938,2.16016-3.55957,2.16016l0,0
		C290.09619,111.91602,289.46631,111.77588,288.87646,111.46582z M148.7168,109.42578
		c-0.30029-0.58008-0.44043-1.19971-0.44043-1.81982l0,0c0-1.4502,0.79004-2.85986,2.17041-3.56982l0,0
		c1.95996-1.01025,4.37988-0.23047,5.38965,1.72998l0,0c0.30029,0.57959,0.43994,1.20996,0.43994,1.81982l0,0
		c0,1.4502-0.78955,2.85986-2.16992,3.56982l0,0c-0.58008,0.30029-1.20996,0.43994-1.83008,0.43994l0,0
		C150.82666,111.5957,149.42676,110.80566,148.7168,109.42578z M270.65674,104.23584
		c-1.74023-0.52002-2.85059-2.12012-2.85059-3.83984l0,0c0-0.37988,0.06055-0.76025,0.1709-1.14014l0,0
		c0.63965-2.12012,2.86914-3.31982,4.98926-2.68018l0,0l0,0l0,0c1.73047,0.52002,2.85059,2.12012,2.83984,3.84033l0,0
		c0,0.37988-0.0498,0.75977-0.16992,1.13965l0,0c-0.51953,1.73047-2.10938,2.8501-3.83008,2.8501l0,0
		C271.42627,104.40576,271.03662,104.35596,270.65674,104.23584z M167.38672,101.35596
		c-0.11035-0.35986-0.16016-0.72998-0.16016-1.08984l0,0c0-1.75,1.14014-3.3501,2.8999-3.86035l0,0
		c2.12012-0.60986,4.34033,0.62012,4.9502,2.74023l0,0c0.1001,0.35986,0.1499,0.72998,0.1499,1.08984l0,0
		c0.01025,1.75-1.12988,3.3501-2.89014,3.85986l0,0c-0.36963,0.11035-0.73975,0.16016-1.10986,0.16016l0,0
		C169.48682,104.25586,167.88672,103.10596,167.38672,101.35596z M187.1665,96.57568
		c-0.02979-0.20996-0.0498-0.40967-0.0498-0.60986l0,0c0-1.94971,1.41992-3.6499,3.3999-3.95996l0,0
		c2.18018-0.33008,4.22021,1.16992,4.56006,3.3501l0,0c0.02979,0.20996,0.04004,0.41016,0.04004,0.60986l0,0
		c0,1.9502-1.41016,3.6499-3.39014,3.9502l0,0c-0.20996,0.04004-0.41016,0.0498-0.60986,0.0498l0,0
		C189.17676,99.96582,187.4668,98.5459,187.1665,96.57568z M251.32666,99.82568c-1.95996-0.31982-3.36035-2.00977-3.36035-3.92969
		l0,0c0-0.22021,0.01074-0.43994,0.0498-0.66016l0,0c0.35059-2.18018,2.41016-3.66016,4.59082-3.2998l0,0
		c1.95996,0.31006,3.34961,2,3.35938,3.92969l0,0c0,0.20996-0.01953,0.43018-0.0498,0.65039l0,0
		c-0.32031,1.96973-2.01953,3.35986-3.9502,3.35986l0,0C251.75635,99.87598,251.53662,99.86572,251.32666,99.82568z
		 M207.3667,94.10596c0-0.08984,0-0.16992,0-0.26025l0,0c0.00977-2.08984,1.6499-3.83984,3.77002-3.96973l0,0
		c2.19971-0.12988,4.09033,1.56006,4.22021,3.77002l0,0c0.00977,0.08008,0.00977,0.16992,0.00977,0.25l0,0
		c-0.00977,2.1001-1.65039,3.8501-3.77002,3.96973l0,0c-0.08008,0.01025-0.16016,0.01025-0.22998,0.01025l0,0
		C209.25684,97.87598,207.49658,96.23584,207.3667,94.10596z M231.51611,97.73584c-2.13965-0.10986-3.7998-1.87012-3.7998-3.98975
		l0,0c0-0.07031,0-0.14014,0.01074-0.20996l0,0c0.10938-2.2002,1.98926-3.90039,4.19922-3.79004l0,0
		c2.12988,0.10986,3.79004,1.87988,3.79004,4l0,0c0,0.06982,0,0.12988,0,0.19971l0,0c-0.12012,2.14014-1.87988,3.80029-4,3.80029
		l0,0C231.64697,97.74609,231.58643,97.74609,231.51611,97.73584z"/>
	<g>
		<g>
			<path class="st1-coin" d="M252.13011,138.42944c-2.92909-1.16089-6.34502-1.68639-10.24075-1.57672
				c-3.89742,0.10899-8.92661,0.87189-15.08839,2.28833c-6.16263,1.41612-11.18277,2.42657-15.0657,3.03229
				c-12.86696,2.03545-23.52202,1.37964-31.9669-1.96733c-5.72089-2.26736-8.57108-4.94296-8.54875-8.02759
				c0.02228-3.08389,2.8672-6.15227,8.53304-9.20509l-11.27058-4.46688l8.81636-3.85543l11.37398,4.50787
				c7.25381-2.45358,14.73491-3.60618,22.44691-3.4594c7.71286,0.14712,14.94759,1.55959,21.70247,4.23677l-13.33655,5.83213
				c-4.34279-1.72118-8.80048-2.62341-13.37569-2.70624c-4.57437-0.08249-8.64198,0.65486-12.20467,2.21283
				c-3.52654,1.54218-5.38676,3.10318-5.57874,4.68076c-0.19115,1.57791,1.38687,3.02866,4.72957,4.35347
				c2.9986,1.18843,6.38406,1.7124,10.15834,1.56966c3.77596-0.14207,8.82376-0.92017,15.14607-2.33475
				c6.32315-1.41425,11.5134-2.43408,15.57434-3.06113c4.06-0.62592,7.89471-0.98868,11.50681-1.08878
				c3.61293-0.09975,7.0683,0.09196,10.37064,0.57245c3.29958,0.48239,6.50175,1.33734,9.60374,2.56677
				c5.82513,2.30867,8.64621,5.01114,8.46225,8.10851c-0.18216,3.09659-3.34436,6.26062-9.48575,9.49243l10.08148,3.99561
				l-8.76035,3.83093l-10.0298-3.97511c-8.03204,2.8801-16.07222,4.35632-24.12138,4.42834
				c-8.04735,0.07123-15.48412-1.24513-22.30852-3.94984l13.39076-5.85583c4.34279,1.72119,8.86856,2.54347,13.57912,2.46608
				s9.19676-1.04796,13.4586-2.91168c4.18777-1.83133,6.42712-3.60051,6.71719-5.30789
				C256.68839,141.14871,255.26686,139.67264,252.13011,138.42944z"/>
			<path class="st0-coin" d="M230.95361,158.91699c-7.8457,0-15.20605-1.34082-21.88428-3.98779l-1.11572-0.44238l14.68066-6.41992
				l0.19434,0.07666c4.26074,1.68896,8.75977,2.51465,13.38672,2.43115c4.62207-0.07617,9.08496-1.0415,13.2666-2.86963
				c4.9873-2.18164,6.24609-3.88721,6.42383-4.93359c0.24316-1.43506-1.08887-2.73926-3.95996-3.87695l0,0
				c-2.85156-1.13086-6.22363-1.65039-10.04297-1.54199c-3.84668,0.10791-8.88965,0.87354-14.98926,2.27588
				c-6.15137,1.41309-11.23145,2.43555-15.10107,3.03906c-12.89746,2.03906-23.73926,1.36816-32.22803-1.99658
				c-5.90625-2.34082-8.88867-5.19922-8.86475-8.49609c0.02246-3.13232,2.59766-6.12305,7.86523-9.12646l-11.40283-4.51953
				l10.10693-4.41943l11.39746,4.51709c7.21973-2.41992,14.76416-3.57812,22.44238-3.42676
				c7.73584,0.14746,15.09619,1.58447,21.87744,4.27148l1.11523,0.44189l-14.62695,6.39697l-0.19434-0.07666
				c-4.2666-1.69092-8.70801-2.58984-13.2002-2.67139c-4.48242-0.0791-8.51562,0.64893-11.99512,2.1709
				c-3.29004,1.43945-5.1167,2.92041-5.28223,4.2832c-0.19873,1.63818,2.29248,2.98584,4.41699,3.82812
				c2.92139,1.15771,6.27051,1.67383,9.95508,1.53516c3.72705-0.14014,8.79248-0.92188,15.05566-2.32324
				c6.30273-1.40967,11.55371-2.44141,15.60742-3.06738c4.06055-0.62598,7.95312-0.99414,11.56934-1.09473
				c3.61328-0.09863,7.13574,0.09424,10.45703,0.57812c3.32617,0.48633,6.59473,1.35986,9.71582,2.59619
				c6.02148,2.38721,8.97461,5.28174,8.77637,8.60352c-0.18457,3.14502-3.06641,6.22314-8.80176,9.39307l10.19824,4.04248
				l-10.0498,4.39502l-10.04883-3.98242c-7.99023,2.84424-16.10059,4.32275-24.10742,4.39404
				C231.36182,158.91602,231.15771,158.91699,230.95361,158.91699z M210.57129,154.43359
				c6.43018,2.37646,13.521,3.55811,20.98584,3.48047c7.95508-0.0708,16.01465-1.55078,23.95703-4.39893l0.17773-0.06348
				l10.01172,3.96777l7.46973-3.26709l-9.97656-3.9541l0.96289-0.50635c5.94727-3.12988,9.04883-6.18457,9.21875-9.0791
				c0.16895-2.84277-2.57227-5.40479-8.14746-7.61475c-3.04785-1.20801-6.24121-2.06152-9.49121-2.53662
				c-3.26367-0.47461-6.72168-0.66602-10.28516-0.56738c-3.57422,0.09863-7.4248,0.46338-11.44434,1.08301
				c-4.03223,0.62256-9.26074,1.65039-15.54102,3.05469c-6.32275,1.41455-11.44922,2.2041-15.23633,2.34668
				c-3.82227,0.14941-7.31006-0.39453-10.36133-1.60449c-3.61719-1.43311-5.26611-3.0293-5.04199-4.87842
				c0.21729-1.7832,2.13867-3.44434,5.875-5.07861c3.61182-1.58008,7.79297-2.33154,12.41357-2.25488
				c4.54492,0.08252,9.03662,0.979,13.35693,2.66504l12.03027-5.26123c-6.35352-2.36279-13.20898-3.62939-20.396-3.76611
				c-7.62793-0.15381-15.11426,1.00977-22.27686,3.43262l-0.17383,0.05859l-11.35107-4.49854l-7.52588,3.2915l11.15332,4.41992
				l-0.94531,0.50928c-5.46729,2.94629-8.24951,5.89648-8.27002,8.76855c-0.02051,2.84277,2.74951,5.38623,8.23291,7.55957
				c8.32178,3.29834,18.98828,3.95068,31.70459,1.93848c3.84717-0.6001,8.90381-1.61816,15.03174-3.02588
				c6.16406-1.41699,11.27344-2.19141,15.18652-2.30127c3.94824-0.10596,7.45996,0.43164,10.43945,1.6123
				c3.37012,1.33594,4.91016,3.00928,4.57715,4.97363c-0.32324,1.90234-2.61621,3.76123-7.00977,5.68262
				c-4.30273,1.88135-8.89551,2.875-13.65137,2.95361c-4.6748,0.07764-9.24902-0.73877-13.57715-2.42529L210.57129,154.43359z"/>
		</g>
	</g>
	<path class="st0-coin" d="M221.47803,244.87549c-63.84131,0-121.98291-30.38916-121.98291-63.75781v-40.79541
		c0-2.48535,2.01465-4.5,4.5-4.5s4.5,2.01465,4.5,4.5v40.79541c0,12.11035,11.96875,25.68164,32.0166,36.30371
		c22.46094,11.90039,51.21533,18.4541,80.96631,18.4541s58.50488-6.55371,80.96582-18.4541
		c20.04785-10.62207,32.0166-24.19336,32.0166-36.30371v-40.79541c0-2.48535,2.01465-4.5,4.5-4.5s4.5,2.01465,4.5,4.5v40.79541
		C343.46045,214.48633,285.31885,244.87549,221.47803,244.87549z"/>
	<path class="st0-coin" d="M132.42578,214.51025c-1.10449,0-2-0.89551-2-2V184.4668c0-1.10449,0.89551-2,2-2s2,0.89551,2,2v28.04346
		C134.42578,213.61475,133.53027,214.51025,132.42578,214.51025z"/>
	<path class="st0-coin" d="M247.14697,239.00342c-1.10449,0-2-0.89551-2-2v-35.48584c0-1.10449,0.89551-2,2-2s2,0.89551,2,2v35.48584
		C249.14697,238.10791,248.25146,239.00342,247.14697,239.00342z"/>
	<path class="st0-coin" d="M317.90674,216.14941c-1.10449,0-2-0.89551-2-2v-35.48633c0-1.10449,0.89551-2,2-2s2,0.89551,2,2v35.48633
		C319.90674,215.25391,319.01123,216.14941,317.90674,216.14941z"/>
	<path class="st0-coin" d="M221.47803,246.37549c-31.43359,0-61.93408-6.9873-85.88232-19.67578
		c-23.89551-12.66064-37.60059-29.2749-37.60059-45.58203v-40.79541c0-19.03174,13.3501-36.61719,37.59033-49.521
		c23.04199-12.26611,53.5459-19.021,85.89258-19.021s62.84961,6.75488,85.8916,19.021
		c24.24121,12.90381,37.59082,30.48926,37.59082,49.51758c0,0.00098,0,0.00098,0,0.00342v40.79541
		c0,16.30713-13.70508,32.92139-37.60059,45.58203C283.41162,239.38818,252.91162,246.37549,221.47803,246.37549z
		 M221.47803,83.78027c-30.41504,0-58.9165,6.25537-80.25391,17.61328c-20.13818,10.72021-31.229,24.54443-31.229,38.92529v40.79883
		c0,24.12256,49.72852,53.25781,111.48291,53.25781c61.75391,0,111.48242-29.13525,111.48242-53.25781v-40.79541
		c0-0.00244,0-0.00244,0-0.00342c0-14.38086-11.09082-28.20508-31.22949-38.92529
		C280.39404,90.03564,251.89307,83.78027,221.47803,83.78027z"/>
</g>
</svg>
