<?xml version="1.0" encoding="utf-8"?>
<!-- Generator: Adobe Illustrator 26.1.0, SVG Export Plug-In . SVG Version: 6.00 Build 0)  -->
<svg version="1.1" id="Layer_1" xmlns="http://www.w3.org/2000/svg" xmlns:xlink="http://www.w3.org/1999/xlink" x="0px" y="0px"
	 viewBox="0 0 48 48" style="enable-background:new 0 0 48 48;" xml:space="preserve">
<style type="text/css">
	.st0-insights{fill:none;}
	.st1-insights{fill:#FFFFFF;}
</style>
<g>
	<rect class="st0-insights" width="48" height="48"/>
</g>
<g>
	<g>
		<polygon class="st1-insights" points="30,19.2 31.896,15.072 36,13.2 31.896,11.328 30,7.2 28.176,11.328 24,13.2 28.176,15.072 		"/>
		<polygon class="st1-insights" points="9.6,24 10.56,20.16 14.4,19.2 10.56,18.24 9.6,14.4 8.64,18.24 4.8,19.2 8.64,20.16 		"/>
		<path class="st1-insights" d="M39.6,14.4c-2.568,0-4.416,2.688-3.24,5.136l-7.224,7.224c-1.248-0.6-2.376-0.336-3.096,0l-2.424-2.424
			C23.856,23.88,24,23.352,24,22.8c0-1.992-1.608-3.6-3.6-3.6s-3.6,1.608-3.6,3.6c0,0.552,0.144,1.08,0.36,1.536L9.936,31.56
			C9.48,31.344,8.952,31.2,8.4,31.2c-1.992,0-3.6,1.608-3.6,3.6c0,1.992,1.608,3.6,3.6,3.6s3.6-1.608,3.6-3.6
			c0-0.552-0.144-1.08-0.36-1.536l7.224-7.224c1.248,0.6,2.376,0.336,3.096,0l2.424,2.424C24.144,28.92,24,29.448,24,30
			c0,1.992,1.608,3.6,3.6,3.6s3.6-1.608,3.6-3.6c0-0.552-0.144-1.08-0.36-1.536l7.224-7.224c2.472,1.2,5.136-0.696,5.136-3.24
			C43.2,16.008,41.592,14.4,39.6,14.4z"/>
	</g>
</g>
</svg>
