<?xml version="1.0" encoding="utf-8"?>
<!-- Generator: Adobe Illustrator 26.1.0, SVG Export Plug-In . SVG Version: 6.00 Build 0)  -->
<svg version="1.1" id="Layer_9" xmlns="http://www.w3.org/2000/svg" xmlns:xlink="http://www.w3.org/1999/xlink" x="0px" y="0px"
	 viewBox="0 0 404.58945 332.40576" style="enable-background:new 0 0 404.58945 332.40576;" xml:space="preserve">
<style type="text/css">
	.st0-leaf{fill:#54B948;}
</style>
<g id="leaf_00000161604849057652856790000010326982076935806373_">
	<path class="st0-leaf" d="M201.92389,332.36551c-28.56104,0-56.41309-8.09277-78.94579-23.78418
		c-27.23926-18.96777-59.46777-57.33885-61.82617-133.10155l-9.47314,0.05859c-4.08154,0.26465-27.58594,1.17871-41.62207-11.83301
		c-6.5791-6.09863-10.05664-14.38867-10.05664-23.97461c0-5.24658,4.25342-9.5,9.5-9.5s9.5,4.25342,9.5,9.5
		c0,4.3252,1.25439,7.5083,3.94824,10.01758c7.18555,6.69336,22.41357,7.19531,27.67285,6.81738
		c0.20459-0.01465,0.43311-0.02441,0.6377-0.02539l19.19775-0.11816c2.55908,0.00293,4.96777,0.98145,6.7627,2.76855
		c1.79492,1.78809,2.80127,4.21875,2.7959,6.75195c-0.12549,58.50977,18.48535,102.44139,53.8203,127.04686
		c31.55566,21.97363,75.479,26.57129,114.62842,11.99609c92.41699-34.40625,129.89844-121.21873,136.5166-138.39061
		c-2.9209-7.69141-11.92285-29.32812-29.05762-53.79688c-19.47656-27.81543-53.82812-65.17139-106.86523-85.17627
		c-35.44043-13.3667-74.98096-11.13525-105.76855,5.97461c-30.61376,17.01318-51.08837,47.6665-59.20947,88.64551
		c-1.02002,5.14648-6.01953,8.49171-11.16553,7.47218c-5.14648-1.02002-8.49219-6.01905-7.47217-11.16553
		c11.6748-58.91113,43.75879-87.74512,68.61767-101.56006c35.60596-19.78662,81.10254-22.45801,121.70312-7.14404
		c57.83691,21.81494,95.06641,62.4038,116.11328,92.6123c22.76367,32.67188,31.86621,60.05518,32.24219,61.20557
		c0.63281,1.93262,0.62891,4.01855-0.0127,5.94922c-0.38086,1.14844-9.60059,28.49219-32.50391,61.06641
		c-21.17676,30.11815-58.5791,70.54686-116.50879,92.11424C237.84186,329.21414,219.7442,332.36551,201.92389,332.36551z"/>
	<path class="st0-leaf" d="M351.08502,171.96123c-0.00293,0-0.00586,0-0.00977,0l-240.36084-0.4209
		c-3.0376-0.00488-5.49561-2.47168-5.49023-5.50977c0.00537-3.03418,2.4668-5.49023,5.5-5.49023c0.00293,0,0.00635,0,0.00977,0
		l240.36084,0.4209c3.03711,0.00488,5.49512,2.47168,5.49023,5.50977C356.58014,169.50517,354.11823,171.96123,351.08502,171.96123z
		"/>
	<path class="st0-leaf" d="M254.15338,278.6243c-1.70996,0-3.39355-0.79395-4.46875-2.28613l-58.04443-80.62889
		c-1.77441-2.46582-1.21484-5.90234,1.25049-7.67773c2.46436-1.77344,5.90234-1.21484,7.67676,1.25l58.04492,80.62889
		c1.77441,2.46582,1.21484,5.90234-1.25098,7.67773C256.38971,278.28738,255.26569,278.6243,254.15338,278.6243z"/>
	<path class="st0-leaf" d="M237.22467,138.67265c-1.14648,0-2.30176-0.35693-3.29004-1.09619
		c-2.43262-1.81934-2.92969-5.26611-1.11035-7.69873l40.48926-54.1294c1.81934-2.43262,5.26758-2.92871,7.69824-1.10986
		c2.43262,1.81934,2.92969,5.26611,1.11035,7.69873l-40.48926,54.1294C240.5528,137.91045,238.8985,138.67265,237.22467,138.67265z"
		/>
	<g>
		<path class="st0-leaf" d="M311.01666,234.30986c-1.60645,0-3.19922-0.7002-4.28613-2.0498l-30.83203-38.27246
			c-1.90527-2.36523-1.53223-5.82812,0.83301-7.7334c2.36523-1.9043,5.82812-1.5332,7.7334,0.83301l30.83203,38.27246
			c1.90527,2.36523,1.53223,5.82812-0.83301,7.7334C313.44733,233.91142,312.22858,234.30986,311.01666,234.30986z"/>
	</g>
	<path class="st0-leaf" d="M143.05475,138.67265c-1.11328,0-2.23682-0.33691-3.20898-1.03662
		c-2.46533-1.7749-3.0249-5.21191-1.25049-7.67725l58.04443-80.62939c1.77539-2.46436,5.21289-3.0249,7.67676-1.25049
		c2.46582,1.7749,3.02539,5.21191,1.25098,7.67725l-58.04443,80.62939C146.4483,137.87822,144.76373,138.67265,143.05475,138.67265z
		"/>
</g>
</svg>
