<?xml version="1.0" encoding="utf-8"?>
<!-- Generator: Adobe Illustrator 26.1.0, SVG Export Plug-In . SVG Version: 6.00 Build 0)  -->
<svg version="1.1" xmlns="http://www.w3.org/2000/svg" xmlns:xlink="http://www.w3.org/1999/xlink" x="0px" y="0px"
	 viewBox="0 0 431.2641 431.2641" style="enable-background:new 0 0 431.2641 431.2641;" xml:space="preserve">
<style type="text/css">
	.st0-nitrogen{fill:#D61F82;}
</style>
<g id="box">
	<path class="st0-nitrogen" d="M361.73898,431.26428H69.52513c-38.33643,0-69.5249-31.18945-69.5249-69.52539V69.52553
		c0-38.33643,31.18848-69.52539,69.5249-69.52539h292.21387c38.33594,0,69.52539,31.18896,69.52539,69.52539v263.1665
		c0,5.24707-4.25293,9.5-9.5,9.5s-9.5-4.25293-9.5-9.5V69.52553c0-27.85986-22.66602-50.52539-50.52539-50.52539H69.52513
		c-27.85938,0-50.5249,22.66553-50.5249,50.52539v292.21338c0,27.85938,22.66553,50.52539,50.5249,50.52539h292.21387
		c26.03027,0,47.63867-19.49512,50.26367-45.34863c0.53027-5.21973,5.19629-9.02148,10.41113-8.49121
		c5.21973,0.5293,9.02148,5.19141,8.49121,10.41113C427.29172,404.42542,397.55637,431.26428,361.73898,431.26428z"/>
</g>
<g id="type">
	<g>
		<path class="st0-nitrogen" d="M268.90305,280.72913h-29.15038l-56.74609-93.0869v93.0869h-29.15039V139.25258h29.15039l56.84277,93.28125
			v-93.28125h29.0537V280.72913z"/>
	</g>
	<g>
		<path class="st0-nitrogen" d="M83.60228,61.00307l-18.69336,42.98779H54.78196l18.72657-40.60742H49.46946v-7.73633h34.13282V61.00307z"/>
	</g>
	<g>
		<path class="st0-nitrogen" d="M157.6555,397.12463h-6.49121v-25.02148l-7.74902,2.40332v-5.27832l13.54395-4.85156h0.69629V397.12463z"/>
		<path class="st0-nitrogen" d="M187.48363,384.81604h3.70605v5.2334h-3.70605v7.0752h-6.49121v-7.0752h-13.40918l-0.29199-4.08789
			l13.63379-21.54004h6.55859V384.81604z M173.75999,384.81604h7.23242v-11.54492l-0.42676,0.74121L173.75999,384.81604z"/>
		<path class="st0-nitrogen" d="M195.27757,393.93518c0-1.0332,0.34814-1.87109,1.04443-2.51562
			c0.69629-0.64355,1.56836-0.96582,2.6167-0.96582c1.06299,0,1.94287,0.32227,2.63916,0.96582
			c0.69629,0.64453,1.04443,1.48242,1.04443,2.51562c0,1.01855-0.34473,1.8457-1.0332,2.48242
			c-0.68896,0.63672-1.57227,0.9541-2.65039,0.9541c-1.06348,0-1.93945-0.31738-2.62793-0.9541
			C195.62181,395.78088,195.27757,394.95374,195.27757,393.93518z"/>
		<path class="st0-nitrogen" d="M230.04759,383.60315c0,4.52246-0.93555,7.98145-2.80762,10.37695
			c-1.87207,2.39648-4.6123,3.59375-8.2207,3.59375c-3.56445,0-6.28955-1.1748-8.17627-3.52637
			c-1.88672-2.35059-2.85254-5.71973-2.89746-10.10742v-6.01953c0-4.56641,0.94678-8.0332,2.84131-10.39941
			c1.89404-2.36523,4.62305-3.54883,8.1875-3.54883c3.56348,0,6.28906,1.17188,8.17578,3.51562s2.85254,5.70898,2.89746,10.0957
			V383.60315z M223.55638,376.98499c0-2.71289-0.37109-4.6875-1.11133-5.92383c-0.74219-1.2373-1.89844-1.85547-3.4707-1.85547
			c-1.52734,0-2.6543,0.58887-3.38086,1.76562s-1.11133,3.01562-1.15625,5.51855v7.95898c0,2.66797,0.3623,4.65039,1.08887,5.94727
			c0.72656,1.2959,1.89062,1.94434,3.49316,1.94434c1.58691,0,2.73242-0.62207,3.43652-1.86621
			c0.7041-1.24316,1.07031-3.14648,1.10059-5.70996V376.98499z"/>
		<path class="st0-nitrogen" d="M256.43918,383.60315c0,4.52246-0.93553,7.98145-2.8076,10.37695
			c-1.87207,2.39648-4.6123,3.59375-8.2207,3.59375c-3.56348,0-6.28906-1.1748-8.17578-3.52637
			c-1.88672-2.35059-2.85254-5.71973-2.89746-10.10742v-6.01953c0-4.56641,0.94727-8.0332,2.84082-10.39941
			c1.89453-2.36523,4.62402-3.54883,8.1875-3.54883s6.28906,1.17188,8.17578,3.51562s2.85252,5.70898,2.89745,10.0957V383.60315z
			 M249.94798,376.98499c0-2.71289-0.37109-4.6875-1.11133-5.92383c-0.74219-1.2373-1.89844-1.85547-3.4707-1.85547
			c-1.52734,0-2.6543,0.58887-3.38086,1.76562c-0.72559,1.17676-1.11133,3.01562-1.15625,5.51855v7.95898
			c0,2.66797,0.36328,4.65039,1.08984,5.94727c0.72559,1.2959,1.88965,1.94434,3.49219,1.94434
			c1.58691,0,2.73242-0.62207,3.43652-1.86621c0.7041-1.24316,1.07031-3.14648,1.10059-5.70996V376.98499z"/>
		<path class="st0-nitrogen" d="M283.05539,368.04456l-12.64551,29.08008h-6.85059l12.66797-27.46973h-16.26172v-5.2334h23.08984V368.04456z"
			/>
	</g>
	<path class="st0-nitrogen" d="M278.22531,307.94495H146.16869c-3.0376,0-5.5-2.46289-5.5-5.5s2.4624-5.5,5.5-5.5h132.05663
		c3.03711,0,5.5,2.46289,5.5,5.5S281.26242,307.94495,278.22531,307.94495z"/>
</g>
</svg>
