<?xml version="1.0" encoding="utf-8"?>
<!-- Generator: Adobe Illustrator 26.2.0, SVG Export Plug-In . SVG Version: 6.00 Build 0)  -->
<svg version="1.1" xmlns="http://www.w3.org/2000/svg" xmlns:xlink="http://www.w3.org/1999/xlink" x="0px" y="0px"
	 viewBox="0 0 431.26416 431.26416" style="enable-background:new 0 0 431.26416 431.26416;" xml:space="preserve">
<style type="text/css">
	.st0-operation{fill:#DB7E27;}
</style>
<g id="box">
	<path class="st0-operation" d="M361.73877,431.26416H69.5249C31.18848,431.26416,0,400.07471,0,361.73877V69.52539
		C0,31.18896,31.18848,0,69.5249,0h292.21387c38.33594,0,69.52539,31.18896,69.52539,69.52539v263.1665
		c0,5.24707-4.25293,9.5-9.5,9.5s-9.5-4.25293-9.5-9.5V69.52539C412.26416,41.66553,389.59814,19,361.73877,19H69.5249
		C41.66553,19,19,41.66553,19,69.52539v292.21338c0,27.85938,22.66553,50.52539,50.5249,50.52539h292.21387
		c26.03027,0,47.63867-19.49512,50.26367-45.34863c0.53027-5.21973,5.19629-9.02148,10.41113-8.49121
		c5.21973,0.5293,9.02148,5.19141,8.49121,10.41113C427.2915,404.42529,397.55615,431.26416,361.73877,431.26416z"/>
</g>
<g id="improve_x5F_operations">
	<path class="st0-operation" d="M353.37646,358.48486H85.2832c-3.0376,0-5.5-2.46289-5.5-5.5V285.146c0-3.03711,2.4624-5.5,5.5-5.5h47.73047
		c3.0376,0,5.5,2.46289,5.5,5.5v49.65918c0,3.03711-2.4624,5.5-5.5,5.5s-5.5-2.46289-5.5-5.5V290.646H90.7832v56.83887h262.59326
		c3.03711,0,5.5,2.46289,5.5,5.5S356.41357,358.48486,353.37646,358.48486z"/>
	<path class="st0-operation" d="M249.85986,358.41162h-82.77588c-3.0376,0-5.5-2.46289-5.5-5.5V240.72803c0-3.03711,2.4624-5.5,5.5-5.5
		h82.77588c3.03711,0,5.5,2.46289,5.5,5.5v94.07715c0,3.03711-2.46289,5.5-5.5,5.5s-5.5-2.46289-5.5-5.5v-88.57715h-71.77588
		v101.18359h77.27588c3.03711,0,5.5,2.46289,5.5,5.5S252.89697,358.41162,249.85986,358.41162z"/>
	<path class="st0-operation" d="M353.15479,358.48486h-69.22461c-3.03711,0-5.5-2.46289-5.5-5.5V169.17529c0-3.0376,2.46289-5.5,5.5-5.5
		h69.22461c3.03711,0,5.5,2.4624,5.5,5.5v165.62988c0,3.03711-2.46289,5.5-5.5,5.5s-5.5-2.46289-5.5-5.5V174.67529h-58.22461
		v172.80957h63.72461c3.03711,0,5.5,2.46289,5.5,5.5S356.19189,358.48486,353.15479,358.48486z"/>
</g>
<g id="Layer_4">
	<g>
		<polygon class="st0-operation" points="78.10689,240.1418 165.03947,169.17551 182.82599,191.16428 294.6687,104.41147 283.97205,91.33282 
			314.54282,93.33282 309.54282,122.33282 299.93045,109.78226 182.82599,200.63191 164.74734,178.40024 82.05071,244.40585 		"/>
		<path class="st0-operation" d="M82.05273,249.90576c-1.48438,0-2.95996-0.59766-4.03955-1.76562l-3.94385-4.26367
			c-1.03076-1.11426-1.55518-2.60449-1.44922-4.11816s0.83301-2.91699,2.00879-3.87695l86.93262-70.9668
			c1.1333-0.9248,2.59082-1.36035,4.04346-1.20996c1.45557,0.15039,2.79053,0.87451,3.71094,2.01172l14.39746,17.79883
			l103.125-79.99023l-7.12402-8.70996c-1.38574-1.69531-1.63477-4.05127-0.63281-5.99854
			c1.00195-1.94678,3.04004-3.11328,5.25-2.97168l30.57031,2c1.55566,0.10205,2.99512,0.85938,3.96094,2.08398
			c0.96484,1.2251,1.36426,2.80225,1.09961,4.33887l-5,29c-0.37109,2.15381-1.98242,3.8833-4.10449,4.40576
			c-2.12793,0.52393-4.35254-0.26172-5.68164-1.99609l-6.24707-8.15723l-112.73193,87.45752
			c-2.36084,1.83105-5.75342,1.44336-7.63818-0.87549l-14.64014-18.00293l-78.43701,62.60547
			C84.47168,249.51025,83.25928,249.90576,82.05273,249.90576z M300.16748,104.28711
			c0.15625,0.00684,0.3125,0.02051,0.46875,0.04053c1.45215,0.18799,2.76953,0.94775,3.66016,2.11035l1.96387,2.56348
			l1.82324-10.5791l-11.8418-0.7749l2.68457,3.28223C299.70654,101.88477,300.13916,103.06787,300.16748,104.28711z"/>
	</g>
</g>
</svg>
