<?xml version="1.0" encoding="utf-8"?>
<!-- Generator: Adobe Illustrator 26.1.0, SVG Export Plug-In . SVG Version: 6.00 Build 0)  -->
<svg version="1.1" id="Layer_1" xmlns="http://www.w3.org/2000/svg" xmlns:xlink="http://www.w3.org/1999/xlink" x="0px" y="0px"
	 viewBox="0 0 48 48" style="enable-background:new 0 0 48 48;" xml:space="preserve">
<style type="text/css">
	.st0-public{fill:none;}
	.st1-public{fill:#FFFFFF;}
</style>
<path class="st0-public" d="M0,0h48v48H0V0z"/>
<path class="st1-public" d="M24,4C12.96,4,4,12.96,4,24s8.96,20,20,20s20-8.96,20-20S35.04,4,24,4z M22,39.86C14.1,38.88,8,32.16,8,24
	c0-1.24,0.16-2.42,0.42-3.58L18,30v2c0,2.2,1.8,4,4,4V39.86z M35.8,34.78C35.28,33.16,33.8,32,32,32h-2v-6c0-1.1-0.9-2-2-2H16v-4h4
	c1.1,0,2-0.9,2-2v-4h4c2.2,0,4-1.8,4-4V9.18C35.86,11.56,40,17.3,40,24C40,28.16,38.4,31.94,35.8,34.78z"/>
</svg>
