<?xml version="1.0" encoding="utf-8"?>
<!-- Generator: Adobe Illustrator 26.2.0, SVG Export Plug-In . SVG Version: 6.00 Build 0)  -->
<svg version="1.1" xmlns="http://www.w3.org/2000/svg" xmlns:xlink="http://www.w3.org/1999/xlink" x="0px" y="0px"
	 viewBox="0 0 431.2641 431.2641" style="enable-background:new 0 0 431.2641 431.2641;" xml:space="preserve">
<style type="text/css">
	.st0-reduceWaste{fill:none;stroke:#54B948;stroke-width:19;stroke-linecap:round;stroke-miterlimit:10;}
	.st1-reduceWaste{fill:none;stroke:#54B948;stroke-width:11;stroke-linecap:round;stroke-linejoin:round;stroke-miterlimit:10;}
	.st2-reduceWaste{display:none;fill:none;stroke:#54B948;stroke-width:6;stroke-linecap:round;stroke-linejoin:round;stroke-miterlimit:10;}
	.st3-reduceWaste{fill:#54B948;}
	.st4-reduceWaste{opacity:0.42;}
</style>
<g id="box">
	<path class="st0-reduceWaste" d="M421.45419,367.87598c-3.07391,30.26816-28.63629,53.88812-59.71545,53.88812H69.52534
		C36.37426,421.7641,9.5,394.88983,9.5,361.73874V69.52534C9.5,36.37426,36.37426,9.5,69.52534,9.5h292.21338
		c33.15109,0,60.02536,26.87426,60.02536,60.02534V332.6925"/>
</g>
<g id="world">
	<circle id="earth_x5F_shape" class="st1-reduceWaste" cx="215.63205" cy="215.63205" r="101.55276"/>
	<g id="detail">
		
			<circle id="earth_x5F_shape_00000082331277801583219580000014864795977311772819_" class="st2-reduceWaste" cx="215.63205" cy="215.63205" r="101.55276"/>
		<g>
			<g>
				<path class="st3-reduceWaste" d="M166.87851,246.84087c2.63313-2.1936,5.38394-4.39362,6.70302-7.66536
					c1.1886-2.94807,0.9872-6.51195-1.1384-8.98694c-1.79665-2.09198-4.56577-2.56898-7.07741-3.2903
					c-0.92476-0.26556-1.5667-0.39014-2.04956-1.00854c-0.44476-0.56961-0.28906-2.48656-0.28011-3.51892
					c0.04271-4.92087,0.35536-9.95598-0.75206-14.79437c-1.0385-4.53723-4.03563-8.63107-9.04826-8.83423
					c-4.05157-0.1642-7.50519,2.74156-10.30208,5.31226c-1.31137,1.20532-2.58333,2.44939-3.94133,3.60312
					c-0.07532,0.064-0.61121,0.47171-0.11349,0.0993c-0.15085,0.11287-0.30231,0.22482-0.45732,0.33197
					c-0.24277,0.16779-0.49097,0.32921-0.74815,0.47418c-0.14476,0.0816-0.29384,0.153-0.44035,0.23099
					c-0.48575,0.25856,0.53517-0.14244,0.02017-0.01425c-0.11784,0.02933-0.31996,0.06355-0.42513,0.12082
					c-0.33473,0.18227,0.60709-0.01529-0.02916-0.00853c-0.19466,0.00206-0.66028-0.08691,0.12306,0.0354
					c-0.12473-0.01947-0.2767-0.11304-0.39819-0.11536c0.11186,0.04579,0.22371,0.09157,0.33557,0.13736
					c-0.08861-0.04446-0.17479-0.09319-0.25856-0.14618c-0.04269-0.02841-0.0854-0.05684-0.12811-0.08525
					c0.29204,0.23465,0.33414,0.26294,0.12631,0.08487c-0.12505-0.12918-0.67374-0.80458-0.34712-0.34491
					c-0.31903-0.44902-0.58612-0.93286-0.82463-1.42871c-0.25687-0.53401-0.18172-0.4023-0.37222-1.02881
					c-0.03104-0.1021-0.10934-0.79147-0.05515-0.19075c-0.0192-0.21277-0.02737-0.42603-0.02444-0.63965
					c0.00291-0.21304,0.01643-0.42688,0.04193-0.63843c-0.01274,0.10574-0.09634,0.49161,0.01405,0.02704
					c0.12047-0.50694,0.26147-1.00038,0.45219-1.48611c-0.19565,0.49829,0.09804-0.20796,0.12018-0.25235
					c0.10655-0.21365,0.21201-0.42723,0.32446-0.63792c0.2323-0.43526,0.48367-0.86026,0.74393-1.2793
					c0.54662-0.88005,1.13802-1.73135,1.72914-2.58179c1.19273-1.71593,2.42123-3.43382,3.31255-5.33199
					c1.13867-2.42491,1.72971-4.9538,1.25453-7.62683c-0.52283-2.94116-2.56267-5.50334-3.88692-8.12425
					c-2.85779-5.6561-5.86421-12.94522-3.97375-19.34734c0.34941-1.18329-0.32338-2.49713-1.44749-2.94928
					c-1.24548-0.50098-2.34673,0.00005-3.12187,1.02289c-1.51804,2.0031-2.82994,4.18484-4.08745,6.35606
					c-3.26573,5.63866-5.98843,11.60468-8.20599,17.72955c-3.05701,8.44342-5.03365,17.25874-5.85088,26.20255
					c-0.46739,5.11514-0.52364,10.26794-0.14977,15.3911c0.16614,2.27658,0.47723,4.53545,0.65168,6.80978
					c1.15663,15.0795,6.52975,30.18509,14.61756,42.89719c2.52032,3.96133,5.28716,8.01495,8.66845,11.30377
					c1.7581,1.71005,3.93411,3.44757,6.41061,3.91959c4.81572,0.91785,8.05586-2.87357,9.99631-6.78473
					c2.51649-5.0722,3.98627-10.62875,5.71747-15.99716c0.90607-2.80969,1.85048-5.61258,2.9864-8.33905
					c-0.18863,0.45274,0.22221-0.50914,0.27444-0.62651c0.1329-0.29863,0.26872-0.59596,0.40778-0.89178
					c0.28539-0.60713,0.58386-1.20822,0.90036-1.79976c0.59322-1.1087,1.2574-2.16434,1.98625-3.18811
					c0.35608-0.50015-0.23643,0.28697,0.00539-0.01117c0.09615-0.11856,0.19104-0.23801,0.28914-0.355
					c0.17305-0.20636,0.35089-0.40866,0.53436-0.60583C166.06424,247.57321,166.46027,247.19597,166.87851,246.84087
					c1.02988-0.87439,0.89996-2.63557,0-3.53554c-1.02026-1.02026-2.50311-0.87654-3.53554,0
					c-4.01874,3.41202-6.17302,8.76755-7.95274,13.58163c-1.97893,5.35291-3.44043,10.8797-5.39388,16.24084
					c-0.21324,0.58524-0.43303,1.16812-0.66269,1.74713c-0.09846,0.24826-0.1994,0.49548-0.30098,0.74249
					c0.2321-0.56439-0.18268,0.41571-0.24734,0.55914c-0.44762,0.99307-0.93599,1.97159-1.50815,2.89944
					c-0.24721,0.40088-0.513,0.78699-0.79143,1.16663c0.30209-0.4119,0.14023-0.16757-0.06812,0.06409
					c-0.15553,0.17294-0.30884,0.34659-0.47409,0.5105c-0.15524,0.15399-0.34187,0.28882-0.49014,0.44791
					c-0.24347,0.26123,0.50099-0.28378-0.00122-0.00861c-0.15761,0.08636-0.31877,0.19019-0.47197,0.28516
					c-0.56764,0.3519,0.42198-0.05075-0.11159,0.05823c-0.14571,0.02975-0.31451,0.07449-0.45308,0.12793
					c-0.51465,0.19852,0.51682,0.05493-0.04041,0.00897c-0.14952-0.01233-0.33765-0.0116-0.48766,0.00085
					c-0.60025,0.0499,0.48567,0.16434-0.09467-0.01025c-0.21729-0.06534-0.44122-0.1134-0.65927-0.17871
					c-0.30714-0.09198-0.5448-0.23999-0.08725-0.01694c-0.50183-0.24466-0.98471-0.50824-1.44844-0.82068
					c-0.20773-0.13998-0.41095-0.28668-0.61047-0.43811c0.49109,0.37271-0.27295-0.23956-0.36395-0.3186
					c-0.5545-0.48163-1.08116-0.99475-1.58858-1.52557c-1.4303-1.49625-2.70462-3.1348-3.9263-4.80298
					c-5.75874-7.86353-10.18854-16.65402-13.17876-25.92546c-1.13127-3.5076-2.06801-7.07887-2.79364-10.69237
					c-0.28018-1.39523-0.52886-2.79688-0.74184-4.20396c-0.03971-0.26237-0.07748-0.52502-0.11537-0.78766
					c-0.11045-0.76572,0.03292,0.29976-0.05772-0.42935c-0.05937-0.47757-0.11693-0.95529-0.16792-1.43384
					c-0.62268-5.84297-1.17169-11.70718-1.02608-17.59111c0.2215-8.95099,1.77525-17.81131,4.42028-26.35957
					c3.03603-9.8119,7.47072-18.66881,13.13388-27.34035c0.08412-0.1288,0.18129-0.25145,0.27428-0.37415
					c-1.52313-0.64214-3.04625-1.28426-4.56938-1.92639c-1.7836,6.04024-0.07169,12.63683,2.24471,18.2876
					c1.19966,2.92653,2.5925,5.76485,4.18027,8.50034c0.63655,1.09669,1.07983,1.75964,1.33539,2.84497
					c0.14133,0.60028,0.10794,0.22267,0.11209,0.81548c0.00169,0.24348,0.00014,0.48442-0.00551,0.72786
					c-0.00858,0.16069-0.02179,0.32101-0.03964,0.48096c0.0359-0.26631,0.0291-0.24944-0.02045,0.05066
					c-0.41212,1.99754-1.16849,3.27789-2.36617,5.11905c-1.14034,1.75299-2.4158,3.41722-3.50375,5.20451
					c-1.1084,1.82086-2.00383,3.79655-2.2059,5.93861c-0.20267,2.14828,0.53391,4.29073,1.67751,6.09151
					c1.0799,1.70045,2.61716,3.062,4.69676,3.23891c1.573,0.13383,3.11322-0.4913,4.40247-1.35275
					c1.50542-1.00587,2.83812-2.2579,4.15305-3.49437c0.61986-0.58287,1.23665-1.16913,1.86726-1.74042
					c0.34578-0.31325,0.6947-0.62311,1.05042-0.92506c0.17635-0.1497,0.35495-0.29651,0.53343-0.44365
					c0.1187-0.09647,0.23825-0.19188,0.35863-0.28624c-0.20522,0.15886-0.19307,0.15173,0.03642-0.02138
					c0.64975-0.47032,1.31793-0.91478,2.03357-1.27971c0.18607-0.09488,0.37439-0.18719,0.56653-0.26926
					c-0.5518,0.23569,0.07674-0.01691,0.16592-0.04218c0.19337-0.05481,0.38249-0.1194,0.57808-0.16722
					c0.07495-0.01833,0.82178-0.13754,0.44623-0.09688c-0.41188,0.04459,0.23225-0.00352,0.25668-0.00323
					c0.19888,0.00233,0.39514,0.00409,0.59393,0.01385c0.65222,0.03203-0.50963-0.13487,0.13449,0.02692
					c0.24796,0.06227,0.49257,0.12236,0.7355,0.20311c0.71089,0.23631-0.34749-0.21834,0.29355,0.12859
					c0.20705,0.11206,0.40942,0.22974,0.60365,0.36313c-0.40813-0.28029,0.17683,0.15031,0.21744,0.18997
					c0.1671,0.16318,0.33058,0.32782,0.48451,0.50352c0.48544,0.55414-0.22534-0.37808,0.18216,0.24905
					c0.13281,0.20442,0.26004,0.41098,0.37811,0.62434c0.33168,0.59937,0.28,0.49446,0.47212,1.03137
					c0.37546,1.04919,0.62007,2.14142,0.79881,3.2399c0.32683,2.00864,0.37421,4.707,0.36693,6.99843
					c-0.00919,2.88739-0.38292,5.97913,0.09547,8.83723c0.59212,3.53761,3.57098,4.98766,6.71243,5.80452
					c2.40205,0.62459,4.80391,1.09428,4.37767,4.17459c-0.43735,3.16057-3.69229,5.30116-5.94411,7.17708
					c-1.03806,0.86479-0.89369,2.64185,0,3.53554C164.37038,247.86827,165.83788,247.70778,166.87851,246.84087z"/>
			</g>
		</g>
		<g>
			<g>
				<path class="st3-reduceWaste" d="M253.03241,117.81551c-3.39447,0.83261-6.38512,2.93098-9.0995,5.04711
					c-2.81935,2.19796-5.4361,4.65208-7.89223,7.24747c-1.8325,1.9364-3.77263,3.97231-5.0099,6.35632
					c-2.22777,4.29256-2.54977,9.19347-4.41237,13.61108c-1.86101,4.41385-4.94653,8.21648-8.0631,11.79756
					c-2.25298,2.58878-5.65955,6.93781-9.44568,5.82118c-1.52068-0.44849-2.38963-1.22375-2.24117-2.85799
					c0.21281-2.3427,0.80176-4.34233,0.16086-6.68866c-1.05998-3.88058-4.08995-6.66707-6.32651-9.86481
					c-1.37427-1.96489-2.22804-3.94215-2.27672-6.37302c-0.05815-2.90459,0.54326-5.79945,0.89632-8.67123
					c0.73042-5.94132,0.80589-11.7648-0.21472-17.67893c-0.58203,1.0251-1.16406,2.0502-1.74609,3.0753
					c1.33972-0.4434,2.75053-0.71507,4.13501-0.96987c1.81775-0.33455,2.8665-0.47594,4.5843-0.65631
					c2.42705-0.25485,4.86533-0.39995,7.30479-0.45864c11.05533-0.26599,22.0761,1.21326,32.75827,4.02763
					c2.31331,0.60947,4.63307,1.25426,6.88843,2.0572c1.27203,0.45286,2.73628-0.51229,3.07529-1.7461
					c0.38031-1.38408-0.46944-2.62079-1.74609-3.07529c-6.48064-2.30718-13.35632-3.77232-20.13766-4.82494
					c-10.80609-1.67737-21.94139-2.11925-32.7695-0.36708c-1.81311,0.29339-3.67261,0.61304-5.42203,1.19202
					c-1.37737,0.45585-1.98663,1.68153-1.74611,3.07529c0.91086,5.2781,0.72383,10.58253,0.09293,15.88101
					c-0.63515,5.33415-1.88383,10.6678,0.61409,15.73097c1.77371,3.59521,5.07722,6.1973,6.7903,9.81592
					c0.8546,1.80521,0.51811,3.39296,0.22115,5.41893c-0.36491,2.48949,0.11778,4.85393,1.96115,6.66051
					c3.41426,3.34612,8.78383,2.9644,12.50325,0.39833c2.04105-1.40814,3.71239-3.2019,5.33569-5.05809
					c1.76703-2.02054,3.48805-4.08434,5.07204-6.25278c3.03664-4.15717,5.00662-8.63176,6.25879-13.60977
					c0.56833-2.25938,1.0661-4.61406,2.12025-6.70798c0.3632-0.72147,0.80362-1.37779,1.24969-2.04723
					c-0.19836,0.2977-0.17146,0.20894,0.10095-0.12285c0.19214-0.23402,0.38425-0.46791,0.58009-0.69885
					c2.41524-2.84816,5.08488-5.51019,7.90793-7.9527c1.48077-1.28117,3.01468-2.48581,4.6635-3.54484
					c1.64291-1.05525,2.8996-1.74655,4.6035-2.16449C257.48514,121.87076,256.16223,117.04782,253.03241,117.81551z"/>
			</g>
		</g>
		<g>
			<g>
				<path class="st3-reduceWaste" d="M270.1077,302.56161c-1.95477-6.33566-1.30957-13.44934,0.47318-19.74905
					c0.86954-3.07269,2.08051-6.00708,3.8367-8.68277c2.59958-3.96066,5.26431-7.88016,7.89603-11.81958
					c2.26331-3.38797,5.728-7.32106,5.28174-11.68987c-0.3764-3.68507-3.12872-5.61765-4.97925-8.52499
					c-1.77811-2.79353,0.1568-6.26126,0.33878-9.2809c0.23218-3.85251-2.28745-7.18884-6.10703-7.89932
					c-4.18274-0.77805-7.50012,1.17104-11.3111,2.50002c-1.26608,0.44151-3.27765,1.14014-4.39059,0.1331
					c-0.8284-0.74954-0.88779-2.26392-0.78201-3.43968c0.15918-1.76981,0.92728-3.45673,1.43634-5.14349
					c0.66443-2.20155,1.03546-4.52771,0.48367-6.7971c-0.81586-3.35562-3.47681-5.6429-6.07379-7.68175
					c-1.28169-1.00624-2.46364-2.06204-3.64308-3.18149c-0.20274-0.19243-0.26094-0.66055-0.22298-0.14877
					c-0.01651-0.22258,0.054,0.37677-0.00386,0.33838c0.01752,0.01163,0.91585-0.89056,1.04199-1.00752
					c0.72787-0.67484,1.45847-1.34674,2.18932-2.01836c2.14658-1.97263,4.32254-3.92854,6.28851-6.08521
					c2.03476-2.23213,3.81461-4.68872,5.40799-7.2515c0.81427-1.30966,1.51785-2.69545,2.35995-3.9855
					c0.23706-0.36317,0.49872-0.71088,0.76096-1.05603c0.16629-0.21886-0.02209,0.02916-0.04718,0.06122
					c0.09888-0.1265,0.19852-0.25256,0.29895-0.37785c0.21594-0.26935,0.43301-0.53777,0.6521-0.80458
					c1.76093-2.14441,3.60049-4.22568,5.46088-6.28397c1.45163-1.60605,2.77161-3.27269,4.48608-4.15128
					c0.5849-0.29976,0.54144-0.27283,1.21716-0.49921c0.63889-0.21405,1.29056-0.38786,1.9454-0.54543
					c1.32928-0.31985,2.67505-0.56573,4.00644-0.8765c3.17285-0.74055,6.14502-1.94781,8.70425-3.99477
					c1.46756-1.1738,2.65942-2.60118,3.74243-4.12987c-1.30881,0.16866-2.61765,0.33731-3.92645,0.50597
					c0.04962,0.05963,0.1539,0.14648,0.17545,0.21747c0.00818,0.02704,0.0697,0.09932,0.08908,0.11307
					c0.26468,0.18787-0.23309-0.22614-0.25183-0.32695c0.0206,0.11093,0.22379,0.29242,0.29175,0.38388
					c0.61288,0.82463,1.20383,1.66452,1.77338,2.51973c2.05664,3.08824,3.87366,6.33698,5.49869,9.67122
					c1.16629,2.39293,2.02298,4.35442,2.93292,6.6909c1.07916,2.77104,2.03348,5.59073,2.86301,8.44643
					c1.94107,6.68201,3.20126,13.55347,3.729,20.49185c1.17896,15.50037-0.93991,31.28429-6.5069,45.81558
					c-4.14163,10.81073-10.33655,20.84982-17.90857,29.26511c-2.79367,3.10477-5.78995,6.03186-8.9856,8.72208
					c-0.62491,0.52606-1.25754,1.04294-1.89841,1.54944c-0.14386,0.11371-0.28876,0.22604-0.4328,0.33948
					c-0.05106,0.04019,0.37625-0.28214-0.03513,0.02634c-0.75934,0.56943-1.51715,1.1405-2.28357,1.70044
					c-2.71259,1.98181-5.48181,3.89114-8.32101,5.68753c-0.40567,0.25665-0.81207,0.51257-1.22348,0.75998
					c-2.75449,1.65643-0.24362,5.98145,2.52359,4.31735c7.93506-4.77185,15.4892-10.46765,21.93036-17.14029
					c8.04062-8.32959,14.62408-18.10483,19.30444-28.6926c6.47153-14.63972,9.48929-30.69797,9.11746-46.69054
					c-0.32248-13.87032-3.29651-27.5885-8.8624-40.2966c-1.72812-3.94566-3.71448-7.78604-5.99777-11.44002
					c-1.14047-1.82506-2.32861-3.86697-3.8107-5.44894c-0.06314-0.06738-0.11624-0.14632-0.17542-0.21745
					c-1.11493-1.34006-3.0816-0.68658-3.92645,0.50597c-1.80533,2.54826-4.30447,4.30307-7.18033,5.21327
					c-2.61526,0.82773-5.36493,1.12201-7.97751,1.95325c-2.52618,0.80374-4.56201,2.12305-6.36197,4.05321
					c-1.77475,1.90315-3.50677,3.84819-5.20718,5.8179c-1.59879,1.85196-3.31827,3.72572-4.61993,5.80537
					c-1.6189,2.58655-3.24423,5.58539-4.98941,7.82703c-1.6893,2.16982-3.65219,4.1053-5.6564,5.98064
					c-1.25432,1.17366-2.52512,2.32962-3.78789,3.49416c-1.59175,1.46796-3.48206,2.97472-3.35007,5.36897
					c0.1987,3.60442,4.69066,5.95206,7.12601,8.04626c1.04684,0.90021,2.15578,1.91454,2.69533,3.1983
					c0.72656,1.7287,0.15195,3.64445-0.38696,5.35338c-1.15491,3.66219-2.34413,7.43208-0.57675,11.13074
					c1.966,4.11432,6.78162,4.36147,10.60068,3.02965c2.88165-1.0049,6.62875-3.59985,9.76282-2.19528
					c2.70941,1.21426,0.68668,5.67705,0.39053,7.78767c-0.27545,1.96309-0.16052,3.82738,0.66721,5.65161
					c0.72632,1.60078,1.93478,2.92422,3.06641,4.24817c0.76517,0.89523,1.68515,1.92499,1.8678,3.09883
					c0.284,1.82523-1.11618,3.69223-2.05688,5.11462c-2.60748,3.94257-5.25125,7.86163-7.87695,11.79208
					c-2.16364,3.23874-4.22552,6.3378-5.65985,9.97702c-2.59415,6.582-3.67142,14.14847-2.7699,21.17807
					c0.21762,1.69705,0.52417,3.36469,1.02921,5.00146C266.23209,306.95618,271.06012,305.6485,270.1077,302.56161z"/>
			</g>
		</g>
		<g class="st4-reduceWaste">
			<path class="st3-reduceWaste" d="M165.11075,245.07309c2.12686-1.77954,4.41667-3.506,5.7529-5.936
				c1.33621-2.43001,1.40747-5.82663-0.66144-7.67325c-2.65787-2.37231-7.77069-1.48251-9.25464-4.72136
				c-0.42697-0.9319-0.40671-1.99706-0.41399-3.02208c-0.05568-7.83566,1.35298-20.68634-6.30028-22.35062
				c-8.90147-1.9357-16.31836,18.20757-21.30597,6.15417c-3.23595-7.82022,12.13484-15.10112,6.47191-24.53932
				c-4.2097-7.01617-9.12408-17.94286-6.70224-25.75842c0,0-22.75281,29.96629-17.3764,69.98314
				c0,0,0.79213,26.47754,19.58426,50.24719S152.32799,255.76843,165.11075,245.07309z"/>
		</g>
		<g class="st4-reduceWaste">
			<path class="st3-reduceWaste" d="M253.69701,120.22621c-7.16855,1.66292-17.81334,13.39377-19.57863,15.94838
				c-2.6909,3.89413-3.05568,8.88759-4.62718,13.35254c-1.97052,5.59869-5.82489,10.30978-9.74048,14.77032
				c-2.15031,2.44958-4.51952,4.97581-7.6637,5.83519c-3.14418,0.85936-7.18407-0.76598-7.68501-3.98676
				c-0.24866-1.5986,0.39522-3.19363,0.4893-4.80872c0.34698-5.95732-6.37437-9.82997-8.31914-15.47159
				c-1.22824-3.56305-0.42548-7.4565,0.06737-11.19293c0.87309-6.61925,1.22327-11.87244,0.05746-18.44644c0,0,9-3,26-2
				S253.69701,120.22621,253.69701,120.22621z"/>
		</g>
		<g class="st4-reduceWaste">
			<path class="st3-reduceWaste" d="M267.69699,303.2262c-2.81116-8.87473-0.60938-22.61728,4.56192-30.35818
				c3.44882-5.1626,6.89767-10.32516,10.3465-15.48776c1.40323-2.10046,2.87082-4.47392,2.4646-6.9671
				c-0.57855-3.55075-4.66522-5.62303-5.53735-9.11331c-0.96738-3.87135,2.31125-8.31123,0.23682-11.72002
				c-1.43759-2.36226-4.77136-2.77818-7.44794-2.0834c-2.67661,0.69479-5.09409,2.21002-7.79175,2.81786
				c-1.42609,0.32132-2.99475,0.36191-4.27423-0.34508c-2.64893-1.46371-2.80347-5.24556-1.98212-8.1584
				s2.27997-5.85986,1.63889-8.81761c-0.96396-4.44739-5.98642-6.51804-9.06284-9.87126
				c-0.51845-0.56511-1.01242-1.25473-0.95786-2.01968c0.05618-0.78775,0.67125-1.40565,1.2495-1.94354
				c8.11867-7.55186,10.63783-9.2092,16.07835-18.87068c1.25821-2.23441,8.52231-10.27443,10.30545-12.11726
				c5.21268-5.38712,14.60431-1.46088,21.17206-10.94453c0,0,20.74158,24.8764,17.87079,65.9382
				s-26.42413,63.91252-37.39325,72.17976C272.69699,300.2262,267.69699,303.2262,267.69699,303.2262z"/>
		</g>
	</g>
	<g id="Layer_8">
		<path id="earth_x5F_shape_00000177448487622756092290000006601608254983701404_" class="st1-reduceWaste" d="M261.76474,76.881
			c-78.84404-21.84118-160.46552,24.36875-182.3067,103.21278"/>
		<path class="st1-reduceWaste" d="M245.16006,34.12672"/>
		<polyline class="st1-reduceWaste" points="244.80095,46.90375 261.95203,77.19801 231.65776,94.34908 		"/>
	</g>
	<g id="Layer_9">
		<path id="earth_x5F_shape_00000036945159832959918210000016781734927745126789_" class="st1-reduceWaste" d="M72.19742,253.67978
			c21.37826,78.97083,102.72725,125.65878,181.69806,104.28055"/>
		<path class="st1-reduceWaste" d="M43.86913,289.75125"/>
		<polyline class="st1-reduceWaste" points="54.34798,282.84784 71.67648,252.65471 101.8696,269.98322 		"/>
	</g>
	<g id="Layer_10">
		<path id="earth_x5F_shape_00000176016246763759975630000006216486135910628250_" class="st1-reduceWaste" d="M318.16049,325.08279
			c59.54089-56.10971,62.32242-149.86307,6.21271-209.40396"/>
		<path class="st1-reduceWaste" d="M363.33047,333.04001"/>
		<polyline class="st1-reduceWaste" points="352.31149,326.57184 317.51443,325.53946 318.54681,290.7424 		"/>
	</g>
</g>
</svg>
