<?xml version="1.0" encoding="utf-8"?>
<!-- Generator: Adobe Illustrator 26.1.0, SVG Export Plug-In . SVG Version: 6.00 Build 0)  -->
<svg version="1.1" xmlns="http://www.w3.org/2000/svg" xmlns:xlink="http://www.w3.org/1999/xlink" x="0px" y="0px"
	 viewBox="0 0 5967.40576 1415.08984" style="enable-background:new 0 0 5967.40576 1415.08984;" xml:space="preserve">
<style type="text/css">
	.st0-resson{fill:#00A1DF;}
	.st1-resson{fill:#B3B3B3;}
</style>
<g id="New_x5F_Vector_x5F_Tri">
	<g id="Triangle">
		<polygon class="st0-resson" points="0,73.05618 764.44946,1415.08984 790.61798,1120.76404 265.40448,198.80899 		"/>
		<polygon class="st0-resson" points="1609.33704,73.05618 844.88763,1415.08984 818.71912,1120.76404 1343.93262,198.80899 		"/>
		<polygon class="st0-resson" points="280.40448,169.98033 44.19663,0 1564.99438,0 1328.77808,169.98033 		"/>
	</g>
	<g id="Text_x5F_Outlines">
		<path d="M2060.32178,469.49625c34.51562,0.30762,60.40332,6.18555,77.66504,17.64062
			c17.25391,11.45508,25.88867,35.96872,25.88867,73.54099c0,26.88379-4.05273,45.59082-12.14258,56.12988
			c-8.09766,10.53809-25.73828,17.79785-52.92188,21.76465c17.71191,2.14062,32.07324,6.64355,43.07031,13.5166
			s16.49512,20.38965,16.49512,40.55078v82.47559h-36.65527v-67.81348c0-23.21094-5.11914-38.25977-15.35059-45.13281
			c-10.2373-6.87305-26.6543-10.30957-49.25586-10.30957h-208.48132v123.25586h-37.11426V469.49625H2060.32178z
			 M2053.44873,620.70227c25.95996,0.30762,44.44531-3.50781,55.44238-11.45508
			c10.99707-7.93945,16.49512-24.89355,16.49512-50.86035c0-25.65918-6.26465-41.61719-18.78613-47.88181
			c-12.5293-6.25684-30.54883-9.39258-54.06738-9.39258h-203.89929v119.58981H2053.44873z"/>
		<path d="M2274.29443,601.45813h256.13379v30.69922h-256.13379v112.25879h268.96387v30.69922h-306.07812V469.49625h302.87012
			v31.15723h-265.75586V601.45813z"/>
		<path d="M2951.04297,554.26282h-37.11426c0-1.83203-0.0791-3.96582-0.22949-6.41406
			c-0.15723-2.44141-0.38574-4.88281-0.68652-7.33203c-0.61621-6.10645-2.21973-12.06348-4.81152-17.86914
			c-2.59863-5.79883-6.95215-10.08105-13.05859-12.83005c-6.11426-3.0498-14.43359-5.26855-24.97168-6.64355
			c-10.53906-1.375-21.46387-2.3623-32.76172-2.97852c-7.63867-0.30078-15.04883-0.5293-22.22266-0.6875
			c-7.18066-0.15039-13.82422-0.22852-19.93164-0.22852h-12.8291c-6.72266,0.30078-14.8916,0.6084-24.51367,0.90918
			c-9.62305,0.30078-19.63184,0.90918-30.0127,1.81836c-10.99707,0.90918-21.69238,2.19824-32.07422,3.86621
			c-10.3877,1.66797-18.94336,4.0166-25.65918,7.03708c-7.63867,3.33691-12.75781,8.41309-15.34961,15.22852
			c-2.59863,6.81543-4.20215,14.01074-4.81055,21.58496c0,0.91699,0,1.82617,0,2.73535s0,1.81836,0,2.7207
			c0,19.86035,5.65454,32.67798,16.95312,38.48828c12.15186,6.24902,22.77686,8.37402,42.47559,9.77112
			c2.17261,0.15405,5.67651,0.30884,8.85278,0.44116c2.75122,0.11462,5.5896,0.23529,8.64722,0.23529
			c2.74902,0,5.54688,0.09149,8.2959,0.09149s5.49902,0,8.24805,0c6.10645,0,10.92676-0.09564,16.88232-0.16504
			c5.68457-0.06622,12.68115-0.11188,19.31494-0.29297c5.79761-0.15826,11.75586,0,17.87012,0c6.10742,0,12.06348,0,17.87012,0
			c5.19043,0,10.45996,0,15.80762,0c5.34082,0,10.76758,0.15723,16.26562,0.45801
			c5.19141,0.30762,10.45996,0.61523,15.80859,0.91602c5.34082,0.30762,10.61035,0.7666,15.80762,1.375
			c28.10059,3.05664,48.41211,10.30957,60.94043,21.76465c12.52246,11.45508,18.78613,31.69434,18.78613,60.71094
			c0,16.80371-2.59863,31.77344-7.78906,44.9043c-5.19727,13.13672-16.19434,23.36816-32.99023,30.69922
			c-9.16406,4.28125-20.08984,7.25977-32.76172,8.93457c-12.67871,1.67578-25.58691,2.82129-38.71777,3.43652
			c-7.03027,0.30078-13.97461,0.53027-20.84766,0.6875c-6.87305,0.15039-13.51758,0.22852-19.93164,0.22852h-24.28516
			c-7.63867,0-15.34961-0.07812-23.13867-0.22852c-7.79004-0.15723-15.50781-0.38672-23.13965-0.6875
			c-7.94629-0.30762-15.80762-0.6875-23.59668-1.14551c-7.79004-0.45801-15.50781-1.14551-23.13965-2.06152
			c-32.07422-4.27441-52.92188-13.05859-62.54395-26.34668s-14.43359-35.66113-14.43359-67.12598l37.09424-0.00598l0.02002,5.96204
			c0,0.61621,0,0.99512,0,1.14551c0,0.15723,0,0.38672,0,0.6875c0.30078,11.6123,1.60352,21.84277,3.89453,30.69922
			c2.29102,8.86328,10.00195,15.27832,23.13965,19.24414c7.33105,2.14062,15.87891,3.74512,25.65918,4.81152
			c9.77246,1.07422,19.85254,1.91113,30.24121,2.51953c9.16406,0.30859,18.32812,0.53711,27.49219,0.6875
			c9.16309,0.1582,17.25391,0.22949,24.28418,0.22949c4.88281,0,9.69336-0.07129,14.43359-0.22949
			c4.73242-0.15039,9.54297-0.22852,14.43262-0.22852c9.77246-0.30078,19.47363-0.83789,29.0957-1.60449
			c9.62207-0.75879,19.16602-1.75391,28.6377-2.97754c17.41211-2.13379,30.16211-6.94531,38.25977-14.43359
			c8.08984-7.48145,12.14258-20.08203,12.14258-37.80176c0-23.51855-5.88477-37.80078-17.64062-42.8418
			c-11.7627-5.04004-28.33691-7.70996-49.71484-8.01855l-70.10449-1.37402c-3.47876,0.05273-4.87671-0.03546-7.62573-0.03546
			s-5.02954,0.0882-8.86938,0.03546c-10.99585-0.151-21.99414-0.15039-32.99121-0.45801
			c-10.99609-0.30078-21.84277-0.75879-32.53125-1.375c-26.57617-1.52539-48.19043-7.02344-64.83594-16.49512
			c-16.65234-9.46484-24.97168-28.10059-24.97168-55.90039c0-18.62891,3.12891-35.35352,9.39258-50.17285
			c6.25781-14.81247,18.70801-25.73044,37.34375-32.76169c8.54785-3.0498,18.62891-5.49805,30.24121-7.33105
			c11.60547-1.83301,23.66895-3.0498,36.19824-3.66504c10.99609-0.91699,21.76367-1.44629,32.30273-1.60449
			c10.53809-0.15039,19.93164-0.22852,28.17969-0.22852c7.33105,0,14.8125,0.07812,22.45117,0.22852
			c7.63184,0.1582,15.27148,0.38672,22.91016,0.6875c7.33105,0.30762,14.8125,0.6875,22.45215,1.14551
			c7.63184,0.45801,15.12012,1.14551,22.45117,2.0625c26.87695,2.74902,46.27832,10.8457,58.19141,24.28418
			c11.91309,13.44531,17.87012,33.29782,17.87012,59.56638V554.26282z"/>
		<path d="M3365.66797,554.26282h-37.11426c0-1.83203-0.0791-3.96582-0.22949-6.41406
			c-0.15723-2.44141-0.38574-4.88281-0.68652-7.33203c-0.61621-6.10645-2.21973-12.06348-4.81152-17.86914
			c-2.59863-5.79883-6.95215-10.08105-13.05859-12.83005c-6.11426-3.0498-14.43359-5.26855-24.97168-6.64355
			c-10.53906-1.375-21.46387-2.3623-32.76172-2.97852c-7.63867-0.30078-15.04883-0.5293-22.22266-0.6875
			c-7.18066-0.15039-13.82422-0.22852-19.93164-0.22852h-12.8291c-6.72266,0.30078-14.8916,0.6084-24.51367,0.90918
			c-9.62305,0.30078-19.63184,0.90918-30.0127,1.81836c-10.99707,0.90918-21.69238,2.19824-32.07422,3.86621
			c-10.3877,1.66797-18.94336,4.0166-25.65918,7.03708c-7.63867,3.33691-12.75781,8.41309-15.34961,15.22852
			c-2.59863,6.81543-4.20215,14.01074-4.81055,21.58496c0,0.91699,0,1.82617,0,2.73535s0,1.81836,0,2.7207
			c0,19.86035,5.65454,32.67798,16.95312,38.48828c12.15186,6.24902,22.77686,8.37402,42.47559,9.77112
			c2.17261,0.15405,5.67651,0.30884,8.85278,0.44116c2.75122,0.11462,5.5896,0.23529,8.64722,0.23529
			c2.74902,0,5.54688,0.09149,8.2959,0.09149s5.49902,0,8.24805,0c6.10645,0,10.92676-0.09564,16.88232-0.16504
			c5.68457-0.06622,12.68115-0.11188,19.31494-0.29297c5.79761-0.15826,11.75586,0,17.87012,0c6.10742,0,12.06348,0,17.87012,0
			c5.19043,0,10.45996,0,15.80762,0c5.34082,0,10.76758,0.15723,16.26562,0.45801
			c5.19141,0.30762,10.45996,0.61523,15.80859,0.91602c5.34082,0.30762,10.61035,0.7666,15.80762,1.375
			c28.10059,3.05664,48.41211,10.30957,60.94043,21.76465c12.52246,11.45508,18.78613,31.69434,18.78613,60.71094
			c0,16.80371-2.59863,31.77344-7.78906,44.9043c-5.19727,13.13672-16.19434,23.36816-32.99023,30.69922
			c-9.16406,4.28125-20.08984,7.25977-32.76172,8.93457c-12.67871,1.67578-25.58691,2.82129-38.71777,3.43652
			c-7.03027,0.30078-13.97461,0.53027-20.84766,0.6875c-6.87305,0.15039-13.51758,0.22852-19.93164,0.22852h-24.28516
			c-7.63867,0-15.34961-0.07812-23.13867-0.22852c-7.79004-0.15723-15.50781-0.38672-23.13965-0.6875
			c-7.94629-0.30762-15.80762-0.6875-23.59668-1.14551c-7.79004-0.45801-15.50781-1.14551-23.13965-2.06152
			c-32.07422-4.27441-52.92188-13.05859-62.54395-26.34668s-14.43359-35.66113-14.43359-67.12598l37.09424-0.00598l0.02002,5.96204
			c0,0.61621,0,0.99512,0,1.14551c0,0.15723,0,0.38672,0,0.6875c0.30078,11.6123,1.60352,21.84277,3.89453,30.69922
			c2.29102,8.86328,10.00195,15.27832,23.13965,19.24414c7.33105,2.14062,15.87891,3.74512,25.65918,4.81152
			c9.77246,1.07422,19.85254,1.91113,30.24121,2.51953c9.16406,0.30859,18.32812,0.53711,27.49219,0.6875
			c9.16309,0.1582,17.25391,0.22949,24.28418,0.22949c4.88281,0,9.69336-0.07129,14.43359-0.22949
			c4.73242-0.15039,9.54297-0.22852,14.43262-0.22852c9.77246-0.30078,19.47363-0.83789,29.0957-1.60449
			c9.62207-0.75879,19.16602-1.75391,28.6377-2.97754c17.41211-2.13379,30.16211-6.94531,38.25977-14.43359
			c8.08984-7.48145,12.14258-20.08203,12.14258-37.80176c0-23.51855-5.88477-37.80078-17.64062-42.8418
			c-11.7627-5.04004-28.33691-7.70996-49.71484-8.01855l-70.10449-1.37402c-3.47876,0.05273-4.87671-0.03546-7.62573-0.03546
			s-5.02954,0.0882-8.86938,0.03546c-10.99585-0.151-21.99414-0.15039-32.99121-0.45801
			c-10.99609-0.30078-21.84277-0.75879-32.53125-1.375c-26.57617-1.52539-48.19043-7.02344-64.83594-16.49512
			c-16.65234-9.46484-24.97168-28.10059-24.97168-55.90039c0-18.62891,3.12891-35.35352,9.39258-50.17285
			c6.25781-14.81247,18.70801-25.73044,37.34375-32.76169c8.54785-3.0498,18.62891-5.49805,30.24121-7.33105
			c11.60547-1.83301,23.66895-3.0498,36.19824-3.66504c10.99609-0.91699,21.76367-1.44629,32.30273-1.60449
			c10.53809-0.15039,19.93164-0.22852,28.17969-0.22852c7.33105,0,14.8125,0.07812,22.45117,0.22852
			c7.63184,0.1582,15.27148,0.38672,22.91016,0.6875c7.33105,0.30762,14.8125,0.6875,22.45215,1.14551
			c7.63184,0.45801,15.12012,1.14551,22.45117,2.0625c26.87695,2.74902,46.27832,10.8457,58.19141,24.28418
			c11.91309,13.44531,17.87012,33.29782,17.87012,59.56638V554.26282z"/>
		<path d="M3436.74072,624.58997c0-4.87598,0-9.90918,0-15.0918c0-5.18359,0.15039-10.2168,0.45898-15.09961
			c0-10.36621,0.45801-20.74023,1.37402-31.11426c0.91699-10.36719,2.44141-20.43359,4.58203-30.19824
			c6.10742-27.14157,18.55762-44.67477,37.34375-52.60739s40.39258-12.19922,64.83496-12.81543
			c11.29785-0.30078,22.60254-0.5293,33.90723-0.6875c11.29688-0.15039,22.60156-0.22852,33.90625-0.22852
			c10.99707,0,22.14453,0,33.44922,0c11.29688,0,22.60156,0,33.90625,0c63.53223,0,104.24023,8.39062,122.11035,25.16504
			c17.87012,16.78125,26.80469,56.28024,26.80469,118.49509c0,13.73145-0.15723,27.45605-0.45801,41.18066
			c-0.30762,13.72461-1.22461,27.44922-2.74902,41.17285c-3.05762,29.28223-12.07129,49.87305-27.03418,61.77148
			c-14.9707,11.89941-37.11426,18.9082-66.43945,21.04102c-12.52832,1.21777-25.12891,1.90527-37.80078,2.0625
			c-12.67969,0.15039-25.28027,0.22852-37.80176,0.22852h-68.27148c-10.69629,0-21.46387-0.15723-32.30371-0.45801
			c-10.8457-0.30762-19.86816-0.89368-30.58887-1.90839c-1.75464-0.18921-4.4812-0.4649-6.13232-0.66174
			c-1.72705-0.20587-4.01074-0.44385-5.7793-0.70587c-11.6123-1.82617-22.18408-5.03552-32.87354-9.76111
			c-10.69531-4.72461-19.40137-12.27832-26.11719-22.65234c-5.19727-8.2334-9.01367-17.99121-11.45508-29.27441
			c-2.44824-11.2832-4.12305-22.72363-5.04004-34.32227c-0.91602-9.4502-1.45312-18.75781-1.60352-27.90723
			c-0.15723-9.14941-0.22949-17.5332-0.22949-25.16504V624.58997z M3475.22998,645.90344
			c0,33.60547,3.50781,58.34863,10.53809,74.22852c7.02344,15.88672,29.47559,24.13379,67.35547,24.74219l78.81055,0.91699h28.4082
			c6.18774,0.0304,12.54077,0.05566,18.80542,0.05981c6.20728,0.00415,11.29419,0.08826,18.76782-0.05981
			c6.11279-0.12103,12.29199-0.6084,18.55664-0.91699c6.25781-0.30078,12.44336-0.75879,18.55664-1.37402
			c24.43555-2.44141,39.70605-10.68945,45.82031-24.74316c6.10742-14.04688,9.16406-31.76562,9.16406-53.15137
			c0-5.19043,0.07129-10.38086,0.22949-15.57812c0.15039-5.19141,0.22852-10.53906,0.22852-16.03711
			c0.30078-5.19043,0.45801-10.38184,0.45801-15.5791c0-5.19043,0-10.38086,0-15.5791c0-4.58203-0.07812-9.54297-0.22852-14.8916
			c-0.15723-5.34082-0.38672-10.60938-0.6875-15.80762c-0.61523-10.38086-1.76074-20.31152-3.43652-29.7832
			c-1.68262-9.46484-4.51074-17.10352-8.47656-22.91016c-2.14062-3.35742-4.96875-6.18555-8.47656-8.47653
			c-3.51562-2.29102-7.10254-4.04492-10.76758-5.26855c-0.23755-0.09354-0.79443-0.30396-1.25244-0.46118
			c-0.45801-0.15039-0.92627-0.27942-1.49658-0.45581c-4.89062-1.52441-10.08105-2.5918-15.5791-3.20703
			c-5.49902-0.6084-9.82275-1.15607-15.32129-1.4548c-2.88721-0.15686-7.43848-0.3782-10.7959-0.3782
			c-3.36523,0-6.57227,0-9.62207,0l-71.9375,0.08398l-71.02148,0.37402c-32.99023,0.61621-55.21289,5.11914-66.66797,13.51657
			c-11.45508,8.40527-17.64062,29.8623-18.55762,64.37793l-1.37402,45.36133V645.90344z"/>
		<path d="M3942.58936,775.11536h-37.11426V469.49625h61.85742l281.79297,276.29489V469.49625h37.11426v305.61911h-60.94043
			l-282.70996-277.66891V775.11536z"/>
	</g>
	<g>
		<path class="st1-resson" d="M1856.64758,944.62708l-21.25,37.5h-23.75l98.5-166.75h27l99.25,166.75h-23.25l-21.75-37.5H1856.64758z
			 M1923.64758,830.12708l-57.5,97.75h115.75L1923.64758,830.12708z"/>
		<path class="st1-resson" d="M2065.396,926.37708c0.33203,9.83594,1.78906,18.375,4.375,25.625c2.58203,7.25,9.375,12.04297,20.375,14.375
			c3,0.66797,6.125,1.16797,9.375,1.5c3.25,0.33594,6.45703,0.5,9.625,0.5c2.5,0.16797,4.95703,0.25,7.375,0.25
			c2.41406,0,4.78906,0,7.125,0h9.5c1.83203,0.16406,3.66406,0.24609,5.5,0.24609c1.83203,0,3.66406-0.08203,5.5-0.24609
			c4.33203-0.16406,8.58203-0.53906,12.75-1.125c4.16406-0.58203,7.75-1.53906,10.75-2.875c3.83203-1.83203,6.625-4.125,8.375-6.875
			s2.78906-6.20703,3.125-10.375l18.5-0.25c-0.16797,14-5.125,23.33984-14.875,28.01562s-20.54297,7.42188-32.375,8.24219
			c-3.33594,0.16406-6.625,0.28516-9.875,0.37109c-3.25,0.07812-6.46094,0.12109-9.625,0.12109
			c-24.33594,0-44.25-2.45703-59.75-7.375c-15.5-4.91406-23.24988-22.45703-23.24988-52.625c0-24.66406,4.78894-41,14.37488-49
			c9.58203-8,26.20703-12,49.875-12c1,0,2.03906,0,3.125,0c1.08203,0,2.125,0,3.125,0c1,0.16797,1.95703,0.25,2.875,0.25
			c0.91406,0,1.875,0,2.875,0c0.66406,0,1.375,0.04297,2.125,0.125c0.75,0.08594,1.45703,0.125,2.125,0.125
			c21.83203,0.82812,38.875,3.85938,51.125,9.08984s18.375,21.20703,18.375,47.93359c0,0.5,0,0.99609,0,1.49609s0,0.99609,0,1.49219
			c-0.16797,0.5-0.25,0.99609-0.25,1.49609s0,0.99609,0,1.49219H2065.396z M2179.521,909.12708
			c-0.08594-0.83203-0.125-1.75-0.125-2.75c-0.16797-3.33203-0.75-6.66406-1.75-10c-1-3.33203-2.91797-6.25-5.75-8.75
			c-2.83594-2.83203-6.625-4.875-11.375-6.125s-9.625-2.03906-14.625-2.375c-2.5-0.16406-4.96094-0.28906-7.375-0.375
			c-2.41797-0.08203-4.79297-0.125-7.125-0.125h-13.75c-2.5,0.16406-5.125,0.28906-7.875,0.37109s-5.54297,0.20312-8.375,0.36719
			c-5.16797,0.32812-10.21094,1.10938-15.125,2.33984c-4.91797,1.23438-8.96094,3.16016-12.125,5.78516
			c-2.66797,2.13672-4.54297,4.76562-5.625,7.88281c-1.08594,3.11719-1.79297,6.32031-2.125,9.60156
			c-0.16797,0.98438-0.29297,2.05469-0.375,3.20312c-0.08594,1.14844-0.125,2.21484-0.125,3.19922h113.75
			C2179.646,910.71301,2179.60303,909.96301,2179.521,909.12708z"/>
		<path class="st1-resson" d="M2252.14209,864.62708v20.75c2.83203-8.5,7.91406-14.20703,15.25-17.125c7.33203-2.91406,15-4.53906,23-4.875
			c1.5-0.16406,2.95703-0.25,4.375-0.25c1.41406,0,2.78906,0,4.125,0c19.66406,0,34.625,2.33594,44.875,7
			c10.25,4.66797,15.375,18.33594,15.375,41c0,0.5,0,1,0,1.5s0,0.91797,0,1.25c-0.16797,0.5-0.25,0.96094-0.25,1.375
			c0,0.41797,0,0.875,0,1.375l-17.25-0.25c0-14.16406-2.21094-24-6.625-29.5c-4.41797-5.5-14.29297-8.25-29.625-8.25h-6
			c-15.16797,0.16797-26.83594,2.37109-35,6.60938c-8.16797,4.24219-12.25,14.75781-12.25,31.54688v65.34375h-17.5v-117.5
			H2252.14209z"/>
		<path class="st1-resson" d="M2385.63721,924.50208c0-16.03125,2.33203-29.43359,7-40.20703
			c4.66406-10.77344,16.08203-17.32812,34.25-19.66797c2.83203-0.33203,5.70703-0.58203,8.625-0.75
			c2.91406-0.16406,5.875-0.33203,8.875-0.5c2.83203-0.16406,5.70703-0.25,8.625-0.25c2.91406,0,5.78906,0,8.625,0
			c23.5,0,42.41406,2.58984,56.75,7.76562c14.33203,5.17969,21.5,21.96484,21.5,50.35547c0,29.72656-6.125,47.59766-18.375,53.60938
			c-12.25,6.01562-32.29297,9.01953-60.125,9.01953c-23.66797,0-42.21094-2.83594-55.625-8.51562
			c-13.41797-5.67969-20.125-22.54688-20.125-50.60938V924.50208z M2404.38721,923.37708c0,19.83594,3.875,32.375,11.625,37.625
			s20.70703,7.875,38.875,7.875c0.5,0,1.03906,0,1.625,0c0.58203,0,1.20703-0.08203,1.875-0.25c0.5,0,1.03906,0,1.625,0
			c0.58203,0,1.125,0,1.625,0c1.83203,0,3.58203-0.03906,5.25-0.125c1.66406-0.08203,3.41406-0.125,5.25-0.125
			c14-0.5,25.70703-2.45703,35.125-5.875c9.41406-3.41406,14.125-14.53906,14.125-33.375c0-1,0-2,0-3s0-2,0-3
			c-0.16797-9.83203-1.71094-19-4.625-27.5c-2.91797-8.5-10.29297-13.58203-22.125-15.25
			c-6.66797-0.83203-13.375-1.28906-20.125-1.375c-6.75-0.08203-13.54297-0.125-20.375-0.125c-17.5,0-30.16797,2.29297-38,6.875
			c-7.83594,4.58594-11.75,17.21094-11.75,37.875V923.37708z"/>
		<path class="st1-resson" d="M2715.63721,897.37708h-17.5c-0.66797-6.83203-2.25-11.28906-4.75-13.375
			c-2.5-2.08203-7.33594-3.53906-14.5-4.375c-1.83594-0.16406-3.75-0.28906-5.75-0.375c-2-0.08203-3.91797-0.20703-5.75-0.375
			c-3.83594-0.16406-7.66797-0.25-11.5-0.25c-3.83594,0-7.66797,0-11.5,0c-5.5,0-11,0.08594-16.5,0.25
			c-5.5,0.16797-10.91797,0.66797-16.25,1.5c-5.16797,0.66797-9.71094,2.04297-13.625,4.125
			c-3.91797,2.08594-5.875,6.04297-5.875,11.875c0,7.66797,2.03906,12.5,6.125,14.5c4.08203,2,9.45703,3,16.125,3l30.25,0.5h32.75
			c12.83203,0.16797,23.16406,2.33594,31,6.5c7.83203,4.16797,11.75,13.41797,11.75,27.75c0,15.83594-4.25,25.375-12.75,28.625
			s-18.58594,5.125-30.25,5.625c-1.33594,0-2.625,0.03906-3.875,0.125c-1.25,0.08203-2.46094,0.20703-3.625,0.375
			c-2.66797,0-5.375,0.03906-8.125,0.125c-2.75,0.08203-5.46094,0.125-8.125,0.125c-2.83594,0.16406-5.58594,0.25-8.25,0.25
			c-2.66797,0-5.41797,0-8.25,0c-2.5,0-5.08594,0-7.75,0c-2.66797,0-5.41797-0.08594-8.25-0.25
			c-4.16797-0.16797-8.29297-0.41797-12.375-0.75c-4.08594-0.33594-7.79297-0.75-11.125-1.25
			c-10-2.16406-16.75-5.95703-20.25-11.375c-3.5-5.41406-5.25-12.875-5.25-22.375c0-0.5,0-0.95703,0-1.375
			c0-0.41406,0.08203-0.875,0.25-1.375c0-0.33203,0-0.70703,0-1.125c0-0.41406,0-0.875,0-1.375l17.75-0.25
			c0.16406,0.66797,0.25,1.25,0.25,1.75s0,0.91797,0,1.25c0,8.33594,1.78906,13.91797,5.375,16.75
			c3.58203,2.83594,9.28906,4.66797,17.125,5.5c5.16406,0.16797,10.28906,0.375,15.375,0.625
			c5.08203,0.25,10.20703,0.375,15.375,0.375c6.83203,0,13.58203-0.08203,20.25-0.25c6.66406-0.16406,13.33203-0.58203,20-1.25
			c5.5-0.83203,9.83203-2.25,13-4.25c3.16406-2,4.75-5.83203,4.75-11.5c0-8.83203-2.21094-14.625-6.625-17.375
			c-4.41797-2.75-10.79297-4.125-19.125-4.125l-31.75-0.5h-30.25c-11.66797,0.16797-21.29297-1.58203-28.875-5.25
			c-7.58594-3.66406-11.375-12.25-11.375-25.75c0-12.33203,3.53906-20.875,10.625-25.625c7.08203-4.75,16.125-7.45703,27.125-8.125
			c2.83203-0.16406,5.625-0.33203,8.375-0.5c2.75-0.16406,5.53906-0.33203,8.375-0.5c2.66406-0.16406,5.41406-0.28906,8.25-0.375
			c2.83203-0.08203,5.58203-0.125,8.25-0.125c3.16406,0,6.33203,0,9.5,0c3.16406,0,6.33203,0.08594,9.5,0.25
			c3,0,6.08203,0.08594,9.25,0.25c3.16406,0.16797,6.33203,0.41797,9.5,0.75c12,0.83594,20.45703,3.625,25.375,8.375
			c4.91406,4.75,7.625,13.04297,8.125,24.875V897.37708z"/>
		<path class="st1-resson" d="M2772.38623,864.62708v18.75c4.33203-9,10.375-14.58203,18.125-16.75c7.75-2.16406,16.20703-3.25,25.375-3.25
			l18.5-0.25c24.5,0.16797,42.70703,3.375,54.625,9.625c11.91406,6.25,17.875,23.125,17.875,50.625
			c0,19.16797-3.125,33.75-9.375,43.75s-20.04297,15.41406-41.375,16.25c-3.66797,0.33203-7.29297,0.5-10.875,0.5
			c-3.58594,0-7.125,0-10.625,0l-25.25-0.25c-8.33594,0-15.83594-1.29297-22.5-3.875c-6.66797-2.58203-11.5-8.20703-14.5-16.875v70
			h-17.5v-168.25H2772.38623z M2772.63623,924.00208c0,21.77344,4.5,34.53125,13.5,38.26953c9,3.74219,21.75,5.77734,38.25,6.10547
			c0.33203,0,0.70703,0,1.125,0c0.41406,0,0.78906,0,1.125,0c0.66406,0,1.33203,0.04297,2,0.125
			c0.66406,0.08594,1.33203,0.125,2,0.125c0.5,0,1.08203,0,1.75,0c0.66406,0,1.33203,0,2,0c19.66406,0,33.53906-2.125,41.625-6.375
			c8.08203-4.25,12.125-16.875,12.125-37.875c0-22.33203-3.83594-35.5-11.5-39.5c-7.66797-4-21.83594-6-42.5-6h-6
			c-2,0.16797-4,0.25-6,0.25s-4.08594,0.08594-6.25,0.25c-3.66797,0-7.25,0.16797-10.75,0.5s-6.58594,0.82812-9.25,1.49219
			c-11.16797,2.49609-17.83594,7.81641-20,15.95703c-2.16797,8.14453-3.25,17.12109-3.25,26.92578V924.00208z"/>
		<path class="st1-resson" d="M3064.3833,982.12708v-13.75c-3.16797,5.5-7,9.21094-11.5,11.125c-4.5,1.91797-9.66797,3.125-15.5,3.625
			c-5.33594,0.33203-10.71094,0.53906-16.125,0.625c-5.41797,0.08203-10.79297,0.125-16.125,0.125h-15.25c-0.33594,0-0.66797,0-1,0
			c-0.33594,0-0.75,0-1.25,0c-12.16797-0.16797-23.375-2.08203-33.625-5.75c-10.25-3.66406-15.375-13.33203-15.375-29
			c0-12.66406,2.375-21.58203,7.125-26.75c4.75-5.16406,13.45703-8.33203,26.125-9.5c2.83203-0.33203,5.66406-0.58203,8.5-0.75
			c2.83203-0.16406,5.66406-0.25,8.5-0.25c2.83203-0.16406,5.66406-0.25,8.5-0.25c2.83203,0,5.66406,0,8.5,0
			c5.5,0,11,0.08594,16.5,0.25c5.5,0.16797,11,0.41797,16.5,0.75c5.16406,0.33594,9.375,1.08594,12.625,2.25
			c3.25,1.16797,6.375,3.33594,9.375,6.5c0.5,0.66797,1.03906,1.33594,1.625,2c0.58203,0.66797,1.20703,1.41797,1.875,2.25v-12.75
			c0-1.16406,0-2.5,0-4s-0.08594-3-0.25-4.5c-0.33594-4-1.125-7.83203-2.375-11.5c-1.25-3.66406-3.54297-6.58203-6.875-8.75
			c-2.33594-1.66406-5.71094-2.875-10.125-3.625c-4.41797-0.75-9.04297-1.20703-13.875-1.375
			c-3.16797-0.16406-6.29297-0.28906-9.375-0.375c-3.08594-0.08203-5.875-0.125-8.375-0.125c-2.83594,0-5.66797,0-8.5,0
			c-2.83594,0-5.66797,0.08594-8.5,0.25c-2.83594,0-5.66797,0.125-8.5,0.375c-2.83594,0.25-5.66797,0.54297-8.5,0.875
			c-6.33594,0.83594-10.625,2.875-12.875,6.125s-3.375,7.875-3.375,13.875l-19-0.25c0-12.83203,2.875-21.625,8.625-26.375
			s14.70703-7.70703,26.875-8.875c2.33203-0.33203,4.625-0.58203,6.875-0.75c2.25-0.16406,4.53906-0.33203,6.875-0.5
			c2.16406,0,4.41406-0.03906,6.75-0.125c2.33203-0.08203,4.58203-0.125,6.75-0.125c3.33203,0,6.70703,0,10.125,0
			c3.41406,0,6.875,0.08594,10.375,0.25c5.16406,0.16797,10.28906,0.54297,15.375,1.125
			c5.08203,0.58594,10.03906,1.54297,14.875,2.875c10.83203,2.83594,17.625,8.04297,20.375,15.625
			c2.75,7.58594,4.125,16.29297,4.125,26.125v73H3064.3833z M2957.3833,948.87708c0,8.83594,2.78906,14.21094,8.375,16.125
			c5.58203,1.91797,11.95703,2.96094,19.125,3.125l20.5,0.25c3,0.16797,6.41406,0.25,10.25,0.25
			c3.83203,0,7.66406-0.08203,11.5-0.25c4.16406-0.33203,8.25-0.70703,12.25-1.125c4-0.41406,7.58203-1.03906,10.75-1.875
			c4.5-1.33203,8-3.5,10.5-6.5s3.75-6.83203,3.75-11.5c0-3.5-0.79297-6.75-2.375-9.75c-1.58594-3-4.04297-5.25-7.375-6.75
			c-2.83594-1.33203-6.54297-2.28906-11.125-2.875c-4.58594-0.58203-9.29297-0.95703-14.125-1.125c-1.33594,0-2.625,0-3.875,0
			s-2.54297,0-3.875,0c-1.5,0-2.96094,0-4.375,0c-1.41797,0-2.79297,0-4.125,0c-1.33594,0.16797-2.58594,0.25-3.75,0.25
			c-1.16797,0-2.25,0-3.25,0c-2.66797,0-5.58594,0-8.75,0c-3.16797,0-6.41797,0.16797-9.75,0.5
			c-3.83594,0.16797-7.54297,0.54297-11.125,1.125c-3.58594,0.58594-6.79297,1.375-9.625,2.375c-4,1.5-6.58594,3.91797-7.75,7.25
			c-1.16797,3.33594-1.75,6.91797-1.75,10.75V948.87708z"/>
		<path class="st1-resson" d="M3248.38232,940.12708h18.25c-0.33594,18.16797-5.625,29.79297-15.875,34.875
			c-10.25,5.08594-23.29297,7.875-39.125,8.375c-3.16797,0.16406-6.375,0.25-9.625,0.25s-6.54297,0-9.875,0
			c-22.66797,0-40.58594-3.25-53.75-9.75c-13.16797-6.5-19.75-22.91406-19.75-49.25c0-2.66406,0.03906-5.45703,0.125-8.375
			c0.08203-2.91406,0.20703-5.875,0.375-8.875c0.5-4.16406,1.20703-8.20703,2.125-12.125
			c0.91406-3.91406,2.28906-7.375,4.125-10.375c4.83203-7.66406,11.16406-13,19-16c7.83203-3,16-4.83203,24.5-5.5
			c2.16406-0.16406,4.33203-0.28906,6.5-0.375c2.16406-0.08203,4.33203-0.125,6.5-0.125c1,0,1.95703,0,2.875,0
			c0.91406,0,1.78906,0,2.625,0c0.83203,0.16797,1.66406,0.25,2.5,0.25c0.83203,0,1.66406,0,2.5,0c1.5,0,3,0,4.5,0
			s3,0.08594,4.5,0.25c0.66406,0,1.33203,0,2,0c0.66406,0,1.33203,0,2,0c15,0.33594,28.66406,2.625,41,6.875
			c12.33203,4.25,18.5,16.125,18.5,35.625l-18.25-0.25c-0.16797-4.66406-1-8.91406-2.5-12.75c-1.5-3.83203-4.5-6.91406-9-9.25
			c-2.5-1.33203-5.75-2.33203-9.75-3c-4-0.66406-8.08594-1.16406-12.25-1.5c-3.16797-0.16406-6.29297-0.28906-9.375-0.375
			c-3.08594-0.08203-5.875-0.125-8.375-0.125h-3c-2.66797,0.16797-5.58594,0.25-8.75,0.25c-3.16797,0-6.41797,0.16797-9.75,0.49609
			c-3.66797,0.16797-7.29297,0.54297-10.875,1.125c-3.58594,0.58203-6.79297,1.45312-9.625,2.61719
			c-3.16797,1.32812-5.91797,3.24219-8.25,5.73438c-2.33594,2.49219-4,5.40234-5,8.72266
			c-0.83594,2.49609-1.41797,5.07422-1.75,7.73047c-0.33594,2.66016-0.58594,5.32031-0.75,7.97656
			c-0.16797,1.99609-0.25,3.94922-0.25,5.85938c0,1.91406,0,3.86719,0,5.85938c0,9.64062,1.20703,18.41016,3.625,26.30469
			c2.41406,7.89453,9.45703,12.75391,21.125,14.58203c6,1,12,1.66406,18,1.99609s12,0.49609,18,0.49609c2,0,4,0,6,0
			s4.08203-0.08203,6.25-0.25c3-0.16406,6-0.41406,9-0.75c3-0.33203,6-0.83203,9-1.5c7-1.66406,12.03906-4.625,15.125-8.875
			c3.08203-4.25,4.70703-9.78906,4.875-16.625V940.12708z"/>
		<path class="st1-resson" d="M3315.63037,926.37708c0.33203,9.83594,1.78906,18.375,4.375,25.625
			c2.58203,7.25,9.375,12.04297,20.375,14.375c3,0.66797,6.125,1.16797,9.375,1.5c3.25,0.33594,6.45703,0.5,9.625,0.5
			c2.5,0.16797,4.95703,0.25,7.375,0.25c2.41406,0,4.78906,0,7.125,0h9.5c1.83203,0.16406,3.66406,0.24609,5.5,0.24609
			c1.83203,0,3.66406-0.08203,5.5-0.24609c4.33203-0.16406,8.58203-0.53906,12.75-1.125c4.16406-0.58203,7.75-1.53906,10.75-2.875
			c3.83203-1.83203,6.625-4.125,8.375-6.875s2.78906-6.20703,3.125-10.375l18.5-0.25c-0.16797,14-5.125,23.33984-14.875,28.01562
			s-20.54297,7.42188-32.375,8.24219c-3.33594,0.16406-6.625,0.28516-9.875,0.37109c-3.25,0.07812-6.46094,0.12109-9.625,0.12109
			c-24.33594,0-44.25-2.45703-59.75-7.375c-15.5-4.91406-23.25-22.45703-23.25-52.625c0-24.66406,4.78906-41,14.375-49
			c9.58203-8,26.20703-12,49.875-12c1,0,2.03906,0,3.125,0c1.08203,0,2.125,0,3.125,0c1,0.16797,1.95703,0.25,2.875,0.25
			c0.91406,0,1.875,0,2.875,0c0.66406,0,1.375,0.04297,2.125,0.125c0.75,0.08594,1.45703,0.125,2.125,0.125
			c21.83203,0.82812,38.875,3.85938,51.125,9.08984s18.375,21.20703,18.375,47.93359c0,0.5,0,0.99609,0,1.49609s0,0.99609,0,1.49219
			c-0.16797,0.5-0.25,0.99609-0.25,1.49609s0,0.99609,0,1.49219H3315.63037z M3429.75537,909.12708
			c-0.08594-0.83203-0.125-1.75-0.125-2.75c-0.16797-3.33203-0.75-6.66406-1.75-10c-1-3.33203-2.91797-6.25-5.75-8.75
			c-2.83594-2.83203-6.625-4.875-11.375-6.125s-9.625-2.03906-14.625-2.375c-2.5-0.16406-4.96094-0.28906-7.375-0.375
			c-2.41797-0.08203-4.79297-0.125-7.125-0.125h-13.75c-2.5,0.16406-5.125,0.28906-7.875,0.37109s-5.54297,0.20312-8.375,0.36719
			c-5.16797,0.32812-10.21094,1.10938-15.125,2.33984c-4.91797,1.23438-8.96094,3.16016-12.125,5.78516
			c-2.66797,2.13672-4.54297,4.76562-5.625,7.88281c-1.08594,3.11719-1.79297,6.32031-2.125,9.60156
			c-0.16797,0.98438-0.29297,2.05469-0.375,3.20312c-0.08594,1.14844-0.125,2.21484-0.125,3.19922h113.75
			C3429.88037,910.71301,3429.8374,909.96301,3429.75537,909.12708z"/>
	</g>
</g>
<g id="AgTech">
	<g>
		<path class="st1-resson" d="M4858.41455,695.05188h-128.375l-28.83105,80.18066h-41.66895l117.00977-306.41403h35.35547
			l117.2207,306.41403h-41.45898L4858.41455,695.05188z M4742.24658,662.01086h104.17188l-52.19141-143.31592L4742.24658,662.01086z
			"/>
		<path class="st1-resson" d="M4946.39014,659.48547c0-35.49365,8.20703-63.72998,24.62305-84.70605
			c16.41406-20.97217,38.16016-31.46191,65.23828-31.46191c27.7793,0,49.45605,9.82227,65.0293,29.46289l1.89453-25.25391h35.56543
			v222.23438c0,29.46289-8.7334,52.68164-26.20117,69.65918c-17.4668,16.97363-40.93262,25.46387-70.39551,25.46387
			c-16.41406,0-32.48145-3.50879-48.19238-10.52246c-15.71484-7.01758-27.70996-16.625-35.9873-28.83203l20.20312-23.35938
			c16.69531,20.62402,37.1084,30.93555,61.24121,30.93555c18.94043,0,33.70508-5.33301,44.2998-15.99414
			c10.59082-10.66309,15.88867-25.67383,15.88867-45.03516v-19.57227c-15.57324,17.96094-36.82812,26.9375-63.76562,26.9375
			c-26.6582,0-48.22949-10.73242-64.71387-32.19922C4954.63037,725.77747,4946.39014,696.52454,4946.39014,659.48547z
			 M4985.53369,663.9054c0,25.6748,5.26074,45.84473,15.78418,60.50391c10.52148,14.66211,25.25391,21.99121,44.19336,21.99121
			c24.55078,0,42.58008-11.15332,54.08594-33.46094V608.97766c-11.92676-21.74512-29.81445-32.61963-53.66406-32.61963
			c-18.94141,0-33.74512,7.36572-44.40527,22.09717C4990.86377,613.18665,4985.53369,635.00452,4985.53369,663.9054z"/>
		<path class="st1-resson" d="M5363.55029,501.85904h-98.49023v273.3735h-40.19531v-273.3735h-98.2793v-33.04053h236.96484V501.85904z"/>
		<path class="st1-resson" d="M5428.86768,779.44153c-30.86719,0-55.98047-10.13477-75.3418-30.41016
			c-19.36133-20.27148-29.04102-47.38379-29.04102-81.33789v-7.15527c0-22.5874,4.31348-42.75439,12.94238-60.50488
			c8.62793-17.74658,20.69238-31.63623,36.19727-41.66895c15.50098-10.02881,32.30371-15.04688,50.40234-15.04688
			c29.60059,0,52.6123,9.75293,69.02734,29.25244c16.41504,19.50293,24.62207,47.42334,24.62207,83.75928v16.2041h-154.25879
			c0.55859,22.44922,7.11914,40.58398,19.67676,54.40137c12.55469,13.82031,28.51562,20.72949,47.87695,20.72949
			c13.74902,0,25.39258-2.80566,34.93555-8.41797c9.53906-5.61035,17.8877-13.04883,25.04297-22.30859l23.78125,18.51953
			C5495.64893,764.78235,5467.02783,779.44153,5428.86768,779.44153z M5424.02686,575.30579
			c-15.71484,0-28.9043,5.71826-39.56445,17.15137c-10.66406,11.43701-17.25684,27.46387-19.78223,48.08789h114.06348v-2.94629
			c-1.125-19.78223-6.45508-35.10889-15.99414-45.9834C5453.20654,580.74475,5440.30029,575.30579,5424.02686,575.30579z"/>
		<path class="st1-resson" d="M5654.04736,747.66418c13.88965,0,26.02344-4.20898,36.40723-12.62695
			c10.38184-8.41797,16.13281-18.94141,17.25781-31.56738h36.82812c-0.7041,13.04785-5.19238,25.46387-13.46875,37.24902
			c-8.28027,11.78516-19.32812,21.18652-33.14551,28.2002c-13.82129,7.01367-28.44727,10.52246-43.87891,10.52246
			c-31.00879,0-55.66406-10.34473-73.97266-31.04102c-18.30957-20.69336-27.46387-48.99805-27.46387-84.91602v-6.52441
			c0-22.16602,4.06738-41.87939,12.20605-59.13623c8.13477-17.25684,19.81543-30.65332,35.04004-40.1958
			c15.2207-9.53906,33.21484-14.31055,53.98047-14.31055c25.5332,0,46.75195,7.64844,63.66016,22.93896
			c16.90527,15.29395,25.91797,35.14502,27.04297,59.55713h-36.82812c-1.125-14.73145-6.70215-26.83203-16.73145-36.30273
			c-10.03223-9.46973-22.41309-14.20508-37.14355-14.20508c-19.7832,0-35.1123,7.12256-45.9834,21.36035
			c-10.875,14.2417-16.30957,34.82959-16.30957,61.76758v7.36523c0,26.2373,5.39844,46.44043,16.2041,60.60938
			C5618.55029,740.58118,5633.98193,747.66418,5654.04736,747.66418z"/>
		<path class="st1-resson" d="M5827.24756,575.09534c17.25586-21.18311,39.70215-31.77783,67.34375-31.77783
			c48.12012,0,72.39453,27.14795,72.81445,81.44385v150.47119h-38.93262V624.5509
			c-0.1416-16.41504-3.89355-28.54883-11.25879-36.40771c-7.36621-7.85547-18.83594-11.78516-34.4082-11.78516
			c-12.62695,0-23.71191,3.36719-33.25195,10.10156c-9.54199,6.73438-16.97656,15.57324-22.30664,26.5166v162.25635h-38.93359
			V451.98257h38.93359V575.09534z"/>
	</g>
	<rect x="4467.64795" y="360.56491" class="st1-resson" width="33.88235" height="524.48608"/>
</g>
</svg>
