<?xml version="1.0" encoding="UTF-8"?><svg xmlns="http://www.w3.org/2000/svg" viewBox="0 0 431.26416 431.26416"><defs><style>.c{opacity:.5;}.d{fill:#db7e27;}.e{opacity:.4;}</style></defs><g id="a"><path class="d" d="M361.73877,431.26416H69.5249C31.18848,431.26416,0,400.07471,0,361.73877V69.52539C0,31.18896,31.18848,0,69.5249,0H361.73877c38.33594,0,69.52539,31.18896,69.52539,69.52539V332.69189c0,5.24707-4.25293,9.5-9.5,9.5s-9.5-4.25293-9.5-9.5V69.52539c0-27.85986-22.66602-50.52539-50.52539-50.52539H69.5249c-27.85938,0-50.5249,22.66553-50.5249,50.52539V361.73877c0,27.85938,22.66553,50.52539,50.5249,50.52539H361.73877c26.03027,0,47.63867-19.49512,50.26367-45.34863,.53027-5.21973,5.19629-9.02148,10.41113-8.49121,5.21973,.5293,9.02148,5.19141,8.49121,10.41113-3.61328,35.58984-33.34863,62.42871-69.16602,62.42871Z"/></g><g id="b"><path class="d" d="M301.37061,359.48486H122.68555c-13.09717,0-23.75293-10.65527-23.75293-23.75293V111.43945c0-13.09766,10.65576-23.75293,23.75293-23.75293h39.05078c3.0376,0,5.5,2.4624,5.5,5.5s-2.4624,5.5-5.5,5.5h-39.05078c-7.03223,0-12.75293,5.7207-12.75293,12.75293v224.29248c0,7.03223,5.7207,12.75293,12.75293,12.75293h178.68506c7.03223,0,12.75293-5.7207,12.75293-12.75293V111.43945c0-7.03223-5.7207-12.75293-12.75293-12.75293h-32.78027c-3.03711,0-5.5-2.4624-5.5-5.5s2.46289-5.5,5.5-5.5h32.78027c13.09766,0,23.75293,10.65527,23.75293,23.75293v224.29248c0,13.09766-10.65527,23.75293-23.75293,23.75293Z"/><path class="d" d="M249.81494,98.68652h-69.84277c-3.0376,0-5.5-2.4624-5.5-5.5s2.4624-5.5,5.5-5.5h69.84277c3.03711,0,5.5,2.4624,5.5,5.5s-2.46289,5.5-5.5,5.5Z"/><path class="d" d="M235.17432,97.46191c-3.03711,0-5.5-2.4624-5.5-5.5,0-7.9707-6.48438-14.45508-14.45508-14.45508s-14.45508,6.48438-14.45508,14.45508c0,3.0376-2.4624,5.5-5.5,5.5s-5.5-2.4624-5.5-5.5c0-14.03613,11.41895-25.45508,25.45508-25.45508s25.45508,11.41895,25.45508,25.45508c0,3.0376-2.46289,5.5-5.5,5.5Z"/><g><g class="c"><rect class="d" x="176.88217" y="122.31034" width="43.14607" height="86.83146"/><path class="d" d="M220.02783,212.1416h-43.14551c-1.65674,0-3-1.34326-3-3V122.31055c0-1.65674,1.34326-3,3-3h43.14551c1.65723,0,3,1.34326,3,3v86.83105c0,1.65674-1.34277,3-3,3Zm-40.14551-6h37.14551V125.31055h-37.14551v80.83105Z"/></g><g class="c"><rect class="d" x="237.28666" y="143.34405" width="21.03371" height="65.79775"/><path class="d" d="M258.3208,212.1416h-21.03418c-1.65723,0-3-1.34326-3-3v-65.79736c0-1.65674,1.34277-3,3-3h21.03418c1.65723,0,3,1.34326,3,3v65.79736c0,1.65674-1.34277,3-3,3Zm-18.03418-6h15.03418v-59.79736h-15.03418v59.79736Z"/></g><g class="c"><rect class="d" x="272.34284" y="181.09686" width="9.16854" height="28.04494"/><path class="d" d="M281.51123,212.1416h-9.16797c-1.65723,0-3-1.34326-3-3v-28.04492c0-1.65674,1.34277-3,3-3h9.16797c1.65723,0,3,1.34326,3,3v28.04492c0,1.65674-1.34277,3-3,3Zm-6.16797-6h3.16797v-22.04492h-3.16797v22.04492Z"/></g><g class="c"><rect class="d" x="135.89341" y="183.52383" width="25.61798" height="25.61798"/><path class="d" d="M161.51123,212.1416h-25.61768c-1.65674,0-3-1.34326-3-3v-25.61768c0-1.65674,1.34326-3,3-3h25.61768c1.65674,0,3,1.34326,3,3v25.61768c0,1.65674-1.34326,3-3,3Zm-22.61768-6h19.61768v-19.61768h-19.61768v19.61768Z"/></g></g><g><path class="d" d="M220.02783,212.1416h-43.14551c-1.65674,0-3-1.34326-3-3V122.31055c0-1.65674,1.34326-3,3-3h43.14551c1.65723,0,3,1.34326,3,3v86.83105c0,1.65674-1.34277,3-3,3Zm-40.14551-6h37.14551V125.31055h-37.14551v80.83105Z"/><path class="d" d="M258.3208,212.1416h-21.03418c-1.65723,0-3-1.34326-3-3v-65.79736c0-1.65674,1.34277-3,3-3h21.03418c1.65723,0,3,1.34326,3,3v65.79736c0,1.65674-1.34277,3-3,3Zm-18.03418-6h15.03418v-59.79736h-15.03418v59.79736Z"/><path class="d" d="M281.51123,212.1416h-9.16797c-1.65723,0-3-1.34326-3-3v-28.04492c0-1.65674,1.34277-3,3-3h9.16797c1.65723,0,3,1.34326,3,3v28.04492c0,1.65674-1.34277,3-3,3Zm-6.16797-6h3.16797v-22.04492h-3.16797v22.04492Z"/><path class="d" d="M161.51123,212.1416h-25.61768c-1.65674,0-3-1.34326-3-3v-25.61768c0-1.65674,1.34326-3,3-3h25.61768c1.65674,0,3,1.34326,3,3v25.61768c0,1.65674-1.34326,3-3,3Zm-22.61768-6h19.61768v-19.61768h-19.61768v19.61768Z"/></g><path class="d" d="M281.51123,232.3667H130.5c-1.65674,0-3-1.34277-3-3s1.34326-3,3-3h151.01123c1.65723,0,3,1.34277,3,3s-1.34277,3-3,3Z"/><path class="d" d="M281.51123,252.3667H130.5c-1.65674,0-3-1.34277-3-3s1.34326-3,3-3h151.01123c1.65723,0,3,1.34277,3,3s-1.34277,3-3,3Z"/><path class="d" d="M299.30908,280.3667h-70.1123c-1.65723,0-3-1.34277-3-3s1.34277-3,3-3h70.1123c1.65723,0,3,1.34277,3,3s-1.34277,3-3,3Z"/><path class="d" d="M299.30908,300.3667h-70.1123c-1.65723,0-3-1.34277-3-3s1.34277-3,3-3h70.1123c1.65723,0,3,1.34277,3,3s-1.34277,3-3,3Z"/><path class="d" d="M299.30908,320.3667h-70.1123c-1.65723,0-3-1.34277-3-3s1.34277-3,3-3h70.1123c1.65723,0,3,1.34277,3,3s-1.34277,3-3,3Z"/><path class="d" d="M182.354,334.53467c-18.53076,0-33.60645-15.07617-33.60645-33.60645s15.07568-33.60645,33.60645-33.60645,33.60742,15.07617,33.60742,33.60645-15.07666,33.60645-33.60742,33.60645Zm0-61.21289c-15.22217,0-27.60645,12.38379-27.60645,27.60645s12.38428,27.60645,27.60645,27.60645,27.60693-12.38379,27.60693-27.60645-12.38428-27.60645-27.60693-27.60645Z"/><g class="e"><path class="d" d="M201.08337,325.13732c-5.17647,4.01062-11.67411,6.39774-18.72929,6.39774-16.90364,0-30.60674-13.7031-30.60674-30.60674,0-14.52264,10.11463-26.68288,23.6836-29.82045l4.98441,30.2136,20.66801,23.81585Z"/><path class="d" d="M182.354,334.53467c-18.53076,0-33.60645-15.07617-33.60645-33.60645,0-15.73828,10.69482-29.20215,26.00781-32.74316,.80664-.18848,1.65576-.03125,2.34473,.42969,.68896,.46191,1.15625,1.1875,1.29102,2.00488l4.84619,29.37695,20.11182,23.1748c.54053,.62207,.80078,1.44043,.71973,2.26074s-.49609,1.57129-1.14795,2.07617c-5.93262,4.59668-13.04443,7.02637-20.56689,7.02637Zm-9.33252-59.60254c-10.9043,3.87793-18.27393,14.15332-18.27393,25.99609,0,15.22266,12.38428,27.60645,27.60645,27.60645,5.10498,0,9.97949-1.36133,14.2666-3.96289l-18.4707-21.28418c-.36377-.41895-.604-.92969-.69434-1.47754l-4.43408-26.87793Z"/></g><path class="d" d="M182.354,334.53467c-18.53076,0-33.60645-15.07617-33.60645-33.60645,0-15.73828,10.69482-29.20215,26.00781-32.74316,.80664-.18848,1.65576-.03125,2.34473,.42969,.68896,.46191,1.15625,1.1875,1.29102,2.00488l4.84619,29.37695,20.11182,23.1748c.54053,.62207,.80078,1.44043,.71973,2.26074s-.49609,1.57129-1.14795,2.07617c-5.93262,4.59668-13.04443,7.02637-20.56689,7.02637Zm-9.33252-59.60254c-10.9043,3.87793-18.27393,14.15332-18.27393,25.99609,0,15.22266,12.38428,27.60645,27.60645,27.60645,5.10498,0,9.97949-1.36133,14.2666-3.96289l-18.4707-21.28418c-.36377-.41895-.604-.92969-.69434-1.47754l-4.43408-26.87793Z"/><path class="d" d="M180.4126,304.32178c-.56201,0-1.13086-.15723-1.63721-.48828-1.38721-.90527-1.77783-2.76465-.87207-4.15137l17.03955-26.10156c.90625-1.3877,2.76465-1.7793,4.15234-.87207,1.38721,.90527,1.77783,2.76465,.87207,4.15137l-17.03955,26.10156c-.57568,.88184-1.53564,1.36035-2.51514,1.36035Z"/></g></svg>