<?xml version="1.0" encoding="utf-8"?>
<!-- Generator: Adobe Illustrator 26.1.0, SVG Export Plug-In . SVG Version: 6.00 Build 0)  -->
<svg version="1.1" xmlns="http://www.w3.org/2000/svg" xmlns:xlink="http://www.w3.org/1999/xlink" x="0px" y="0px"
	 viewBox="0 0 431.26416 431.26416" style="enable-background:new 0 0 431.26416 431.26416;" xml:space="preserve">
<style type="text/css">
	.st0-water{fill:#2B8FCE;}
</style>
<g id="box">
	<path class="st0-water" d="M361.73877,431.26416H69.5249C31.18848,431.26416,0,400.07471,0,361.73877V69.52539
		C0,31.18896,31.18848,0,69.5249,0h292.21387c38.33594,0,69.52539,31.18896,69.52539,69.52539v263.1665
		c0,5.24707-4.25293,9.5-9.5,9.5s-9.5-4.25293-9.5-9.5V69.52539C412.26416,41.66553,389.59814,19,361.73877,19H69.5249
		C41.66553,19,19,41.66553,19,69.52539v292.21338c0,27.85938,22.66553,50.52539,50.5249,50.52539h292.21387
		c26.03027,0,47.63867-19.49512,50.26367-45.34863c0.53027-5.21973,5.19629-9.02148,10.41113-8.49121
		c5.21973,0.5293,9.02148,5.19141,8.49121,10.41113C427.2915,404.42529,397.55615,431.26416,361.73877,431.26416z"/>
</g>
<g id="box_copy">
	<g>
		<path class="st0-water" d="M317.87549,242.22998H92.10254c-9.10205,0-26.31592-6.02148-26.31592-28.81104
			c0-8.40771,2.52441-15.18115,7.50342-20.13184c4.07129-4.04834,8.99512-5.98242,12.82715-6.90674
			c-0.83691-7.78271-1.19678-21.93115,4.91064-33.52148c8.76855-16.64111,26.59912-21.04883,35.37646-22.21582
			c0.75439-6.29248,3.04346-17.54688,9.98682-28.83887c9.44092-15.354,29.50537-33.65674,71.47998-33.65674
			c31.79932,0,56.07568,9.25195,72.15283,27.49902c19.875,22.55811,21.35254,52.24023,20.92773,65.10547
			c9.27832,0.15381,26.58496,2.0249,38.43652,12.83203c8.10742,7.39307,12.21875,17.51904,12.21875,30.09717
			C351.60693,234.17334,329.54248,242.22998,317.87549,242.22998z M92.33398,196.53662
			c-2.56592,0.021-15.54736,0.93311-15.54736,16.88232c0,16.72803,12.79248,17.77197,15.35645,17.81104h225.71191
			c2.38574-0.03125,22.75195-1.08398,22.75195-27.54883c0-9.47119-2.81348-16.64844-8.59961-21.94189
			c-12.91113-11.80908-36.22754-9.87793-36.45898-9.85645c-1.66016,0.14941-3.29883-0.4624-4.4541-1.66211
			c-1.15527-1.19873-1.70996-2.85645-1.5-4.5083c0.04492-0.36621,4.38184-37.66113-17.87988-62.85742
			c-13.89941-15.73145-35.37891-23.70752-63.84326-23.70752c-29.61816,0-50.51465,9.56152-62.10938,28.41846
			c-8.62793,14.03125-8.72754,28.01709-8.72754,28.15674c0,3.0166-2.43018,5.47021-5.44678,5.5
			c-0.20703,0.00293-22.271,0.5249-30.82812,16.76416c-6.86133,13.02051-3.05176,31.72607-3.0127,31.91357
			c0.34082,1.62695-0.07129,3.32471-1.12256,4.61182c-1.04492,1.27881-2.6084,2.02441-4.25879,2.02441
			C92.35498,196.53662,92.34424,196.53662,92.33398,196.53662z"/>
		<path class="st0-water" d="M181.56299,175.45117c-1.77344,0-3.29346-1.34277-3.47754-3.14551
			c-2.91162-28.54639-26.77344-32.66455-46.27002-31.09424c-1.92383,0.1626-3.61475-1.28076-3.77002-3.20752
			s1.28076-3.61475,3.20752-3.77002c9.12354-0.73389,22.30713-0.43994,33.30615,5.13672
			c12.0376,6.10352,18.93164,16.94531,20.49023,32.2251c0.19629,1.92285-1.20361,3.64062-3.12695,3.83691
			C181.80176,175.44482,181.68213,175.45117,181.56299,175.45117z"/>
	</g>
	<g>
		<path class="st0-water" d="M214.62842,306.89111c-2.80615,0-5.64209-0.66504-8.3457-1.98828
			c-4.72949-2.31445-8.49561-6.39648-10.60498-11.49316c-6.91846-16.71777,1.08057-37.21387,1.42432-38.07812
			c0.90869-2.2832,3.48096-3.41406,5.77881-2.54297c0.83984,0.31934,20.65479,8.01953,28.10107,26.01172l0,0
			c4.43652,10.7207,0.12695,22.71875-9.60645,26.74707C219.20752,306.44482,216.92822,306.89111,214.62842,306.89111z
			 M203.99463,263.27588c-1.6958,6.20801-3.7959,17.52148-0.00049,26.69238c1.26953,3.06836,3.4873,5.50098,6.24463,6.85059
			c2.56885,1.25781,5.30078,1.40332,7.69531,0.41211c5.14746-2.12988,7.27051-8.85449,4.73145-14.98926
			C218.60986,272.44092,209.44873,266.2417,203.99463,263.27588z"/>
		<path class="st0-water" d="M277.78467,306.89111c-2.80566,0-5.64258-0.66504-8.3457-1.98828
			c-4.72949-2.31445-8.49609-6.39648-10.60547-11.49316c-6.91797-16.71777,1.08008-37.21387,1.42383-38.07812
			c0.9082-2.2832,3.48145-3.41504,5.7793-2.54297c0.83984,0.31934,20.65332,8.02148,28.10059,26.01172l0,0
			c2.10938,5.09668,2.3291,10.64551,0.61816,15.62598c-1.77832,5.17969-5.41016,9.12891-10.22363,11.12109
			C282.36377,306.44482,280.08447,306.89111,277.78467,306.89111z M267.1499,263.27588c-1.69531,6.20801-3.7959,17.52148,0,26.69238
			c1.26953,3.06836,3.4873,5.50098,6.24512,6.85059c2.56836,1.25781,5.30078,1.40332,7.69531,0.41211
			s4.22461-3.02539,5.15332-5.72852c0.99805-2.90332,0.84766-6.19238-0.42285-9.26074l0,0
			C281.76514,272.44092,272.604,266.2417,267.1499,263.27588z"/>
		<path class="st0-water" d="M151.51807,306.87549c-7.83447,0-15.55176-5.14258-18.99609-13.46582
			c-6.91846-16.71777,1.08057-37.21387,1.42432-38.07812c0.9082-2.2832,3.48096-3.41406,5.77881-2.54297
			c0.83984,0.31934,20.65381,8.02148,28.10059,26.01172l0,0c2.10938,5.09668,2.3291,10.64648,0.61816,15.62598
			c-1.7793,5.17969-5.41016,9.12891-10.22412,11.12109C156.04297,306.44775,153.7749,306.87451,151.51807,306.87549z
			 M140.83887,263.27588c-1.6958,6.20801-3.7959,17.52148-0.00098,26.69238c2.53857,6.13574,8.79492,9.3916,13.94043,7.2627
			c2.39502-0.99121,4.2251-3.02539,5.15381-5.72852c0.99756-2.90332,0.84717-6.19238-0.42285-9.26074l0,0
			C155.45361,272.44092,146.29297,266.2417,140.83887,263.27588z"/>
		<path class="st0-water" d="M257.67432,361.87549c-7.83398,0-15.55176-5.14258-18.99707-13.46582
			c-6.91699-16.71777,1.08105-37.21387,1.4248-38.07812c0.90918-2.2832,3.48145-3.41504,5.7793-2.54297
			c0.83984,0.31934,20.6543,8.01953,28.10059,26.01172l0,0c4.43652,10.7207,0.12695,22.71875-9.60645,26.74707
			C262.19873,361.44775,259.93115,361.87549,257.67432,361.87549z M246.99463,318.27588
			c-1.69531,6.20801-3.7959,17.52148-0.00098,26.69238c2.53906,6.13574,8.79492,9.3916,13.94043,7.2627
			c5.14746-2.12988,7.27051-8.85449,4.73145-14.98926C261.60986,327.44092,252.44873,321.2417,246.99463,318.27588z"/>
		<path class="st0-water" d="M320.78467,361.89111c-2.80566,0-5.64258-0.66504-8.3457-1.98828
			c-4.72949-2.31445-8.49609-6.39648-10.60547-11.49316c-6.91797-16.71777,1.08008-37.21387,1.42383-38.07812
			c0.9082-2.2832,3.48242-3.41504,5.7793-2.54297c0.83984,0.31934,20.65332,8.02148,28.10059,26.01172l0,0
			c2.10938,5.09668,2.3291,10.64551,0.61816,15.62598c-1.77832,5.17969-5.41016,9.12891-10.22363,11.12109
			C325.36377,361.44482,323.08447,361.89111,320.78467,361.89111z M310.1499,318.27588c-1.69531,6.20801-3.7959,17.52148,0,26.69238
			c1.26953,3.06836,3.4873,5.50098,6.24512,6.85059c2.56836,1.25781,5.30078,1.4043,7.69531,0.41211
			c2.39453-0.99121,4.22461-3.02539,5.15332-5.72852c0.99805-2.90332,0.84766-6.19238-0.42285-9.26074l0,0
			C324.76514,327.44092,315.604,321.2417,310.1499,318.27588z"/>
		<path class="st0-water" d="M194.51807,361.87549c-7.83447,0-15.55176-5.14258-18.99609-13.46582
			c-6.91846-16.71777,1.08057-37.21387,1.42432-38.07812c0.9082-2.2832,3.48096-3.41504,5.77881-2.54297
			c0.83984,0.31934,20.65381,8.02148,28.10059,26.01172l0,0c2.10938,5.09668,2.3291,10.64648,0.61816,15.62598
			c-1.7793,5.17969-5.41016,9.12891-10.22412,11.12109C199.04297,361.44775,196.7749,361.87451,194.51807,361.87549z
			 M183.83887,318.27588c-1.6958,6.20801-3.7959,17.52148-0.00098,26.69238c2.53857,6.13574,8.79492,9.3916,13.94043,7.2627
			c2.39502-0.99121,4.2251-3.02539,5.15381-5.72852c0.99756-2.90332,0.84717-6.19238-0.42285-9.26074l0,0
			C198.45361,327.44092,189.29297,321.2417,183.83887,318.27588z"/>
	</g>
</g>
</svg>
