<?xml version="1.0" encoding="utf-8"?>
<!-- Generator: Adobe Illustrator 26.1.0, SVG Export Plug-In . SVG Version: 6.00 Build 0)  -->
<svg version="1.1" id="Layer_3" xmlns="http://www.w3.org/2000/svg" xmlns:xlink="http://www.w3.org/1999/xlink" x="0px" y="0px"
	 viewBox="0 0 47.18106 42.46257" style="enable-background:new 0 0 47.18106 42.46257;" xml:space="preserve">
<style type="text/css">
	.st0-weight{fill:#FFFFFF;}
	.st1-weight{enable-background:new    ;}
</style>
<g id="TONS" transform="translate(-667 -2202.46)">
	<path id="weight-kilogram" class="st0-weight" d="M690.59052,2202.45996c5.2113,0.00024,9.43573,4.2251,9.43573,9.43628
		c0.00958,1.65894-0.43054,3.28931-1.27362,4.71802h5.99207c2.20355,0.00513,4.11145,1.53149,4.60016,3.68018
		c4.74188,18.89624,4.83618,19.39111,4.83618,19.91016c0,2.60571-2.11224,4.71802-4.71783,4.71802c-0.00018,0-0.00043,0-0.00061,0
		h-37.74475c-2.60559,0-4.71783-2.1123-4.71783-4.71802c0,0,0,0,0,0c0-0.51904,0.0943-1.0127,4.83624-19.91016
		c0.48871-2.14868,2.39655-3.67505,4.6001-3.68018h5.99213c-0.84308-1.42871-1.2832-3.05908-1.27362-4.71802
		C681.15485,2206.68506,685.37921,2202.46021,690.59052,2202.45996 M690.59052,2207.17773
		c-2.60559,0-4.71783,2.1123-4.71783,4.71802c0,2.60547,2.11224,4.71777,4.71783,4.71777s4.71783-2.1123,4.71783-4.71777l0,0
		C695.30835,2209.29004,693.19611,2207.17773,690.59052,2207.17773"/>
	<g class="st1-weight">
		<path d="M681.3454,2229.07788h-2.75732v7.49805h-1.85449v-7.49805h-2.72021v-1.50293h7.33203V2229.07788z"/>
		<path d="M689.62274,2232.28003c0,0.88574-0.15674,1.66211-0.47021,2.33008c-0.31299,0.66797-0.76123,1.18262-1.34424,1.5459
			c-0.5835,0.3623-1.25195,0.54395-2.00635,0.54395c-0.74561,0-1.41113-0.17969-1.99658-0.53809
			c-0.58496-0.3584-1.03857-0.87109-1.35986-1.53613c-0.32129-0.66602-0.48438-1.43164-0.48828-2.29688v-0.44531
			c0-0.88574,0.15967-1.66602,0.479-2.33984s0.77051-1.19043,1.354-1.55078c0.58301-0.36133,1.24951-0.54102,1.99951-0.54102
			s1.4165,0.17969,2,0.54102c0.58301,0.36035,1.03418,0.87695,1.35352,1.55078s0.47949,1.45215,0.47949,2.33398V2232.28003z
			 M687.74335,2231.87183c0-0.94434-0.16895-1.66113-0.50684-2.15137c-0.33838-0.49023-0.82031-0.73535-1.44678-0.73535
			c-0.62207,0-1.10254,0.24219-1.44043,0.72559c-0.33789,0.48438-0.50879,1.19434-0.5127,2.12988v0.43945
			c0,0.91895,0.16846,1.63184,0.50684,2.13867c0.33789,0.50684,0.82422,0.75977,1.4585,0.75977
			c0.62256,0,1.10059-0.24414,1.43457-0.73242c0.3335-0.48828,0.50244-1.2002,0.50684-2.13574V2231.87183z"/>
		<path d="M698.28973,2236.57593h-1.85449l-3.61035-5.92188v5.92188h-1.85449v-9.00098h1.85449l3.61621,5.93457v-5.93457h1.84863
			V2236.57593z"/>
		<path d="M704.57587,2234.2146c0-0.35059-0.12305-0.61914-0.37109-0.80664c-0.24707-0.1875-0.69238-0.38574-1.33496-0.59375
			s-1.15234-0.41309-1.52637-0.61523c-1.02246-0.55176-1.5332-1.2959-1.5332-2.23145c0-0.48633,0.13672-0.91992,0.41113-1.30078
			c0.27344-0.38184,0.66699-0.67969,1.18066-0.89355c0.5127-0.21387,1.08887-0.32129,1.72754-0.32129
			c0.64258,0,1.21582,0.11621,1.71875,0.34863c0.50293,0.2334,0.89258,0.56152,1.1709,0.98633s0.41797,0.90625,0.41797,1.44629
			h-1.85449c0-0.41211-0.12988-0.73242-0.38965-0.96094s-0.625-0.34277-1.09473-0.34277c-0.45312,0-0.80566,0.0957-1.05664,0.28711
			c-0.25195,0.19141-0.37695,0.44434-0.37695,0.75684c0,0.29297,0.14746,0.53809,0.44141,0.73633
			c0.29492,0.19727,0.72852,0.38281,1.30176,0.55566c1.05469,0.31738,1.82324,0.71094,2.30566,1.18066
			c0.48242,0.4707,0.72363,1.05566,0.72363,1.75586c0,0.7793-0.29492,1.39062-0.88477,1.83301
			c-0.58887,0.44336-1.38281,0.66504-2.37988,0.66504c-0.69238,0-1.32227-0.12695-1.8916-0.38086
			c-0.56836-0.25293-1.00195-0.60059-1.30078-1.04102c-0.29883-0.44141-0.44824-0.95215-0.44824-1.5332h1.86035
			c0,0.99316,0.59375,1.48926,1.78027,1.48926c0.44141,0,0.78516-0.08887,1.03223-0.26855
			C704.45282,2234.78589,704.57587,2234.53589,704.57587,2234.2146z"/>
	</g>
</g>
</svg>
